<svg id="svg" version="1.1" xmlns="http://www.w3.org/2000/svg" xmlns:xlink="http://www.w3.org/1999/xlink" width="400" height="400" viewBox="0, 0, 400,400"><g id="svgg"><path id="path0" d="M320.700 15.082 C 321.195 15.178,322.005 15.178,322.500 15.082 C 322.995 14.987,322.590 14.909,321.600 14.909 C 320.610 14.909,320.205 14.987,320.700 15.082 M317.581 25.178 C 315.207 25.899,312.466 28.315,300.393 40.327 C 293.388 47.297,284.146 56.464,279.857 60.698 L 272.058 68.396 271.845 70.498 C 271.727 71.654,271.527 80.790,271.400 90.800 C 271.120 112.804,270.879 114.354,267.453 116.200 C 266.675 116.618,264.815 118.282,263.319 119.897 C 261.824 121.512,259.859 123.636,258.953 124.616 C 257.470 126.221,257.124 126.400,255.499 126.400 C 252.585 126.400,251.884 125.982,245.052 120.176 C 242.648 118.132,237.632 114.800,236.959 114.800 C 236.851 114.800,235.779 114.171,234.577 113.403 C 233.376 112.634,230.909 111.261,229.096 110.352 C 227.283 109.443,224.886 108.095,223.768 107.356 C 221.284 105.714,219.716 105.147,212.800 103.392 C 209.830 102.638,205.833 101.484,203.917 100.827 C 200.005 99.486,194.413 98.403,191.384 98.401 C 188.573 98.399,180.837 97.320,176.929 96.384 C 173.013 95.445,172.039 95.423,168.283 96.185 C 166.697 96.506,164.860 96.865,164.200 96.982 C 162.305 97.316,153.319 98.331,149.800 98.608 C 146.180 98.892,142.652 99.701,140.238 100.800 C 138.330 101.668,129.670 104.503,126.233 105.384 C 124.931 105.718,123.221 106.349,122.433 106.786 C 121.645 107.224,118.660 108.751,115.800 110.180 C 112.940 111.610,109.520 113.415,108.200 114.192 C 106.880 114.970,104.753 115.993,103.473 116.466 C 101.130 117.333,98.135 119.601,92.651 124.663 C 91.140 126.058,89.761 127.200,89.587 127.200 C 88.934 127.200,81.609 133.866,80.576 135.400 C 79.983 136.280,79.376 137.090,79.226 137.200 C 79.077 137.310,77.831 138.885,76.459 140.700 C 75.087 142.515,73.809 144.000,73.620 144.000 C 73.430 144.000,72.616 144.917,71.811 146.037 C 71.006 147.158,69.615 148.870,68.719 149.842 C 67.823 150.814,66.316 153.212,65.372 155.171 C 64.427 157.130,63.102 159.495,62.427 160.427 C 61.752 161.358,61.200 162.354,61.200 162.641 C 61.200 163.204,57.528 170.367,56.402 172.000 C 56.023 172.550,55.393 173.990,55.003 175.200 C 54.613 176.410,54.147 177.587,53.968 177.816 C 53.789 178.045,53.350 179.644,52.993 181.371 C 52.637 183.097,51.826 185.430,51.192 186.555 C 50.240 188.245,49.866 189.780,49.038 195.400 C 48.487 199.140,47.370 204.720,46.557 207.800 C 44.780 214.532,44.118 228.765,45.411 232.431 C 46.682 236.033,48.402 244.397,49.353 251.600 C 49.753 254.633,50.265 256.578,51.195 258.600 C 51.904 260.140,52.671 262.390,52.900 263.600 C 53.704 267.844,56.767 275.219,58.964 278.200 C 59.818 279.359,61.600 282.913,61.600 283.458 C 61.600 283.605,62.017 284.281,62.527 284.962 C 63.037 285.643,64.252 287.787,65.227 289.726 C 66.202 291.666,67.687 294.006,68.526 294.926 C 69.365 295.847,70.736 297.500,71.572 298.600 C 72.409 299.700,73.483 300.948,73.960 301.374 C 74.436 301.799,75.215 302.789,75.690 303.574 C 78.884 308.843,83.617 314.109,88.400 317.712 C 89.610 318.624,91.424 320.120,92.431 321.036 C 93.438 321.953,94.968 323.148,95.831 323.693 C 96.694 324.238,98.373 325.515,99.561 326.529 C 100.750 327.544,103.180 329.127,104.961 330.047 C 106.743 330.966,108.650 332.025,109.200 332.400 C 109.750 332.775,111.063 333.405,112.117 333.801 C 113.172 334.198,115.332 335.327,116.917 336.311 C 119.840 338.126,126.360 340.659,131.165 341.847 C 132.614 342.205,133.980 342.627,134.200 342.786 C 136.276 344.279,144.617 346.267,152.747 347.208 C 156.568 347.650,159.822 348.090,159.978 348.187 C 162.116 349.508,173.624 349.875,179.936 348.822 C 185.755 347.852,187.300 347.641,191.800 347.197 C 193.780 347.001,196.480 346.645,197.800 346.404 C 199.120 346.163,201.215 345.793,202.455 345.582 C 204.601 345.216,206.204 344.679,209.096 343.358 C 209.809 343.033,212.012 342.413,213.991 341.981 C 217.949 341.117,220.493 340.049,226.790 336.608 C 229.094 335.348,231.879 333.963,232.980 333.529 C 234.080 333.096,236.605 331.793,238.590 330.635 C 240.576 329.477,242.470 328.409,242.800 328.260 C 244.171 327.645,248.563 324.342,252.187 321.200 C 261.374 313.236,262.881 311.744,266.306 307.222 C 267.547 305.584,269.330 303.380,270.268 302.323 C 271.206 301.267,272.877 299.065,273.980 297.429 C 275.084 295.793,276.180 294.336,276.415 294.190 C 276.831 293.933,281.200 287.424,281.200 287.061 C 281.200 286.962,281.918 285.737,282.796 284.340 C 283.673 282.943,284.777 281.080,285.248 280.200 C 285.720 279.320,286.730 277.654,287.493 276.497 C 288.257 275.341,289.295 273.181,289.800 271.697 C 290.306 270.214,291.124 268.010,291.618 266.800 C 292.112 265.590,293.196 262.440,294.027 259.800 C 294.859 257.160,295.901 253.973,296.343 252.718 C 296.960 250.966,297.201 248.971,297.381 244.118 C 297.697 235.563,297.952 232.439,298.677 228.200 C 299.317 224.463,299.203 218.414,298.440 215.600 C 297.962 213.840,297.630 209.485,297.372 201.614 C 297.183 195.839,297.096 195.297,295.931 192.643 C 295.171 190.910,294.564 188.679,294.361 186.872 C 293.947 183.183,293.870 182.938,291.813 178.800 C 290.883 176.930,290.002 174.754,289.855 173.965 C 289.708 173.176,288.874 171.345,288.001 169.898 C 287.128 168.451,286.042 166.272,285.587 165.057 C 284.779 162.896,280.456 155.386,279.108 153.800 C 278.314 152.866,276.701 150.760,273.501 146.477 C 269.450 141.054,269.663 138.836,274.621 134.813 C 276.060 133.646,277.758 131.933,278.395 131.008 C 282.337 125.278,282.570 125.223,303.440 125.173 C 322.421 125.128,323.161 125.058,327.351 122.910 C 329.353 121.884,339.663 112.418,345.115 106.600 C 346.146 105.500,347.982 103.700,349.195 102.600 C 350.408 101.500,353.560 98.434,356.200 95.787 C 358.840 93.140,362.389 89.672,364.087 88.081 C 372.688 80.018,375.086 75.524,372.688 71.965 C 370.281 68.393,368.125 68.033,348.400 67.905 L 332.200 67.800 330.706 66.864 C 328.529 65.500,328.451 64.820,328.417 47.000 C 328.379 27.084,328.321 26.696,325.207 25.450 C 323.517 24.773,319.397 24.627,317.581 25.178 M297.615 31.784 C 296.877 32.546,296.094 33.058,295.875 32.923 C 295.640 32.778,295.603 32.881,295.784 33.174 C 296.038 33.584,299.200 31.126,299.200 30.519 C 299.200 30.226,298.869 30.491,297.615 31.784 M336.886 45.076 C 336.839 52.598,336.935 58.836,337.100 58.939 C 337.265 59.041,337.354 55.047,337.298 50.062 C 337.107 33.019,336.973 31.399,336.886 45.076 M282.175 46.100 L 281.000 47.400 282.300 46.225 C 283.015 45.579,283.600 44.994,283.600 44.925 C 283.600 44.616,283.270 44.888,282.175 46.100 M313.116 54.180 C 314.032 56.987,313.104 70.228,311.811 72.778 C 310.924 74.529,301.271 84.881,293.006 92.946 C 287.697 98.125,286.244 96.620,286.301 86.000 C 286.348 77.164,286.588 76.501,291.516 71.576 C 293.432 69.662,296.688 66.319,298.752 64.148 C 311.198 51.052,311.929 50.545,313.116 54.180 M269.775 58.100 L 268.600 59.400 269.900 58.225 C 270.615 57.579,271.200 56.994,271.200 56.925 C 271.200 56.616,270.870 56.888,269.775 58.100 M340.700 59.482 C 341.195 59.578,342.005 59.578,342.500 59.482 C 342.995 59.387,342.590 59.309,341.600 59.309 C 340.610 59.309,340.205 59.387,340.700 59.482 M356.500 59.494 C 357.545 59.576,359.255 59.576,360.300 59.494 C 361.345 59.412,360.490 59.344,358.400 59.344 C 356.310 59.344,355.455 59.412,356.500 59.494 M379.293 74.400 C 379.293 75.170,379.375 75.485,379.476 75.100 C 379.576 74.715,379.576 74.085,379.476 73.700 C 379.375 73.315,379.293 73.630,379.293 74.400 M262.531 81.400 C 262.533 82.940,262.605 83.521,262.692 82.691 C 262.779 81.861,262.777 80.601,262.689 79.891 C 262.600 79.181,262.529 79.860,262.531 81.400 M340.720 81.844 C 343.555 82.411,343.125 85.522,339.695 89.265 C 336.383 92.878,320.241 108.971,319.200 109.697 C 317.744 110.712,304.902 110.742,303.196 109.734 C 300.581 108.189,300.566 105.029,303.164 103.010 C 303.734 102.567,308.452 97.963,313.649 92.781 C 321.455 84.996,323.402 83.259,324.849 82.790 C 327.392 81.966,338.129 81.326,340.720 81.844 M161.705 87.487 C 162.314 87.579,163.214 87.577,163.705 87.482 C 164.197 87.387,163.700 87.311,162.600 87.314 C 161.500 87.317,161.097 87.395,161.705 87.487 M178.900 87.487 C 179.505 87.578,180.495 87.578,181.100 87.487 C 181.705 87.395,181.210 87.320,180.000 87.320 C 178.790 87.320,178.295 87.395,178.900 87.487 M262.967 102.000 C 262.967 106.290,263.026 108.045,263.098 105.900 C 263.170 103.755,263.170 100.245,263.098 98.100 C 263.026 95.955,262.967 97.710,262.967 102.000 M190.600 112.219 C 191.480 112.365,194.090 113.099,196.400 113.851 C 198.710 114.602,202.220 115.499,204.200 115.843 C 209.104 116.695,211.769 117.629,217.400 120.469 C 220.040 121.800,223.037 123.220,224.060 123.623 C 225.084 124.027,227.475 125.492,229.375 126.879 C 235.662 131.468,238.179 133.203,240.093 134.267 C 243.227 136.009,244.534 139.834,243.005 142.789 C 242.275 144.202,229.326 157.436,226.394 159.766 C 223.643 161.953,219.353 160.913,216.570 157.384 C 215.971 156.624,205.200 150.581,205.200 151.005 C 205.200 151.084,204.056 150.631,202.657 149.997 C 201.259 149.363,198.964 148.576,197.557 148.249 C 196.151 147.922,193.683 147.092,192.072 146.406 C 184.901 143.349,157.780 143.455,151.044 146.567 C 149.438 147.309,146.771 148.196,145.119 148.537 C 143.466 148.879,141.110 149.618,139.883 150.179 C 138.655 150.741,137.553 151.200,137.433 151.200 C 137.312 151.200,136.029 151.925,134.581 152.812 C 133.133 153.698,131.061 154.851,129.977 155.374 C 126.903 156.857,122.553 160.351,118.400 164.672 C 105.562 178.030,105.198 178.445,104.598 180.400 C 104.138 181.900,101.478 187.325,100.909 187.923 C 100.636 188.210,99.949 189.962,99.384 191.815 C 98.819 193.668,97.572 196.763,96.612 198.692 C 94.999 201.937,94.832 202.575,94.382 207.200 C 94.114 209.950,93.468 213.943,92.947 216.072 C 91.858 220.527,91.740 224.427,92.585 228.075 C 93.297 231.147,94.243 237.493,94.620 241.725 C 94.888 244.734,95.469 246.252,98.330 251.428 C 98.565 251.852,99.142 253.418,99.613 254.906 C 100.084 256.394,100.729 257.871,101.046 258.188 C 101.363 258.505,102.422 260.442,103.399 262.492 C 104.475 264.748,106.367 267.714,108.195 270.009 C 109.855 272.094,112.010 274.983,112.983 276.428 C 114.932 279.320,116.687 281.051,121.200 284.530 C 122.850 285.802,125.100 287.564,126.200 288.445 C 127.300 289.325,129.460 290.686,131.000 291.467 C 132.540 292.249,134.070 293.112,134.400 293.385 C 136.603 295.207,146.424 299.497,149.567 300.010 C 151.199 300.277,153.705 300.830,155.135 301.239 C 156.565 301.648,160.090 302.169,162.968 302.397 C 165.845 302.626,169.100 302.885,170.200 302.973 C 173.337 303.225,187.180 302.051,189.400 301.345 C 190.500 300.995,191.940 300.626,192.600 300.526 C 195.366 300.108,198.776 299.051,201.400 297.799 C 202.940 297.064,205.730 295.736,207.600 294.847 C 217.675 290.058,219.723 288.621,226.822 281.355 C 230.000 278.103,234.096 273.922,235.924 272.065 C 237.826 270.133,239.609 267.899,240.090 266.844 C 240.553 265.830,241.698 263.827,242.635 262.393 C 243.572 260.959,244.468 259.249,244.627 258.593 C 244.787 257.937,245.272 256.892,245.706 256.271 C 246.141 255.650,246.995 253.490,247.605 251.471 C 248.215 249.452,249.170 246.720,249.727 245.400 C 250.388 243.835,250.884 241.608,251.152 239.000 C 251.379 236.800,251.785 233.020,252.054 230.600 C 252.665 225.101,252.754 221.906,252.354 219.765 C 252.183 218.848,251.754 215.061,251.402 211.349 C 250.749 204.466,250.074 201.276,248.798 199.050 C 248.404 198.363,247.783 196.720,247.418 195.400 C 246.812 193.206,244.992 188.943,243.282 185.713 C 242.907 185.004,241.325 182.574,239.768 180.313 C 235.229 173.722,235.283 173.137,240.967 167.262 C 256.298 151.419,257.519 150.724,260.364 156.227 C 260.826 157.122,261.520 158.202,261.906 158.627 C 266.069 163.216,270.160 169.415,271.822 173.655 C 272.324 174.936,273.122 176.529,273.596 177.194 C 274.070 177.860,274.998 179.886,275.660 181.698 C 276.321 183.510,277.010 185.174,277.191 185.396 C 277.371 185.618,277.920 187.510,278.410 189.600 C 279.920 196.036,280.282 197.305,281.434 200.200 L 282.548 203.000 282.713 217.600 C 282.897 233.928,282.490 240.233,280.994 244.236 C 280.494 245.576,279.694 248.710,279.218 251.201 C 278.741 253.691,277.745 257.275,277.003 259.164 C 276.262 261.054,275.526 263.320,275.369 264.200 C 274.949 266.550,274.072 268.865,273.252 269.789 C 272.856 270.235,272.125 271.590,271.627 272.800 C 269.905 276.986,262.689 287.386,257.782 292.755 C 256.452 294.210,254.625 296.390,253.722 297.600 C 250.861 301.434,242.689 309.377,239.781 311.150 C 239.132 311.546,238.338 312.188,238.017 312.576 C 237.463 313.247,233.412 316.000,232.979 316.000 C 232.867 316.000,231.549 316.807,230.052 317.793 C 228.555 318.779,226.276 320.053,224.986 320.623 C 223.697 321.193,221.619 322.378,220.368 323.255 C 217.503 325.265,211.568 327.843,208.977 328.203 C 207.890 328.354,205.020 329.263,202.600 330.223 C 196.448 332.665,196.206 332.706,184.000 333.404 C 181.910 333.523,178.782 333.820,177.048 334.064 C 173.944 334.501,170.506 334.381,165.000 333.646 C 163.460 333.441,159.513 333.148,156.229 332.996 C 149.906 332.703,147.440 332.236,143.953 330.672 C 140.573 329.156,138.432 328.448,135.243 327.794 C 131.862 327.100,129.566 326.164,127.113 324.480 C 126.171 323.834,123.690 322.451,121.600 321.409 C 119.510 320.367,117.260 319.113,116.600 318.623 C 115.940 318.133,114.140 317.071,112.600 316.262 C 111.060 315.454,108.810 313.839,107.600 312.674 C 106.390 311.509,104.689 310.025,103.821 309.378 C 102.952 308.730,101.687 307.649,101.010 306.976 C 100.332 306.302,99.063 305.346,98.189 304.850 C 97.315 304.355,96.150 303.318,95.600 302.547 C 95.050 301.775,93.565 300.067,92.300 298.750 C 91.035 297.432,90.000 296.183,90.000 295.974 C 90.000 295.593,87.799 293.003,83.103 287.858 C 80.391 284.887,78.792 282.541,78.091 280.505 C 77.846 279.792,77.140 278.440,76.522 277.499 C 72.818 271.856,67.883 260.130,67.227 255.412 C 66.818 252.475,66.494 251.541,64.718 248.200 C 63.960 246.774,63.834 245.644,63.553 237.800 C 63.380 232.960,62.986 227.691,62.677 226.092 C 62.038 222.772,62.129 219.820,62.995 215.800 C 63.379 214.022,63.638 210.300,63.706 205.600 L 63.813 198.200 65.274 195.362 C 66.284 193.401,66.932 191.388,67.371 188.843 C 67.861 186.006,68.465 184.260,70.003 181.232 C 71.101 179.070,72.000 177.086,72.000 176.821 C 72.000 176.557,72.720 174.974,73.600 173.303 C 74.480 171.633,75.200 170.071,75.200 169.832 C 75.200 169.593,75.819 168.526,76.576 167.462 C 77.333 166.397,78.075 164.957,78.225 164.263 C 78.655 162.264,79.557 160.788,81.800 158.412 C 82.948 157.195,84.545 155.329,85.347 154.265 C 89.003 149.418,97.154 140.739,99.200 139.516 C 99.970 139.055,101.500 137.823,102.600 136.777 C 106.234 133.322,109.754 130.761,113.275 129.008 C 115.186 128.057,117.346 126.832,118.075 126.285 C 119.578 125.158,131.221 119.200,131.920 119.200 C 132.172 119.200,133.354 118.768,134.549 118.240 C 135.743 117.711,138.276 116.896,140.177 116.428 C 142.079 115.960,144.752 115.032,146.117 114.366 C 149.089 112.917,151.282 112.450,156.600 112.138 C 158.800 112.008,160.689 111.820,160.798 111.720 C 161.093 111.448,188.742 111.911,190.600 112.219 M260.378 113.100 L 259.000 114.600 260.500 113.222 C 261.896 111.938,262.184 111.600,261.878 111.600 C 261.812 111.600,261.137 112.275,260.378 113.100 M178.700 121.082 C 179.195 121.178,180.005 121.178,180.500 121.082 C 180.995 120.987,180.590 120.909,179.600 120.909 C 178.610 120.909,178.205 120.987,178.700 121.082 M168.100 134.698 C 170.025 134.771,173.175 134.771,175.100 134.698 C 177.025 134.625,175.450 134.565,171.600 134.565 C 167.750 134.565,166.175 134.625,168.100 134.698 M288.505 134.687 C 289.114 134.779,290.014 134.777,290.505 134.682 C 290.997 134.587,290.500 134.511,289.400 134.514 C 288.300 134.517,287.897 134.595,288.505 134.687 M179.800 158.187 C 181.780 158.509,184.840 159.231,186.600 159.793 C 188.360 160.355,191.060 161.016,192.600 161.262 C 196.375 161.866,207.554 167.398,209.183 169.469 C 210.700 171.397,209.513 175.188,206.772 177.174 C 205.948 177.771,204.582 179.056,203.737 180.030 C 202.892 181.003,200.475 183.420,198.366 185.400 C 196.257 187.380,194.283 189.421,193.979 189.936 C 192.442 192.540,188.714 193.067,184.800 191.236 C 180.244 189.103,173.115 188.835,164.600 190.477 C 156.609 192.017,146.462 199.332,144.168 205.206 C 143.783 206.193,143.127 207.492,142.711 208.094 C 142.012 209.105,139.985 214.634,138.567 219.400 C 137.886 221.690,138.074 223.936,139.286 227.963 C 139.722 229.413,140.432 231.860,140.865 233.400 C 141.297 234.940,142.125 237.010,142.706 238.000 C 143.286 238.990,144.087 240.472,144.487 241.294 C 144.886 242.115,146.380 244.083,147.806 245.667 C 149.233 247.251,150.400 248.691,150.400 248.867 C 150.400 249.043,151.336 249.661,152.480 250.241 C 153.625 250.821,155.062 251.665,155.674 252.118 C 156.727 252.897,163.550 254.879,169.888 256.247 C 172.911 256.899,172.717 256.918,178.800 255.404 C 185.151 253.824,186.433 253.390,190.315 251.510 C 193.541 249.947,194.751 249.121,195.915 247.686 C 196.732 246.678,197.872 245.392,198.450 244.827 C 199.535 243.765,202.800 238.773,202.800 238.176 C 202.800 237.990,203.338 237.283,203.996 236.604 C 204.850 235.723,205.301 234.743,205.571 233.185 C 206.197 229.564,206.844 221.468,206.592 220.400 C 206.463 219.850,206.206 217.766,206.022 215.769 C 205.814 213.526,205.382 211.537,204.892 210.569 C 202.693 206.226,203.190 205.147,210.970 197.384 C 214.287 194.075,217.987 190.233,219.193 188.846 C 222.604 184.923,223.277 184.720,225.426 186.963 C 228.173 189.829,232.280 198.389,233.208 203.178 C 233.615 205.280,234.407 208.114,234.967 209.476 C 237.600 215.870,237.500 234.180,234.808 238.510 C 233.874 240.012,233.386 241.482,232.973 244.039 C 231.574 252.686,224.286 263.407,212.815 273.692 C 211.409 274.953,208.805 276.737,207.029 277.657 C 205.253 278.577,203.247 279.748,202.571 280.258 C 199.648 282.466,190.320 285.988,185.400 286.742 C 174.954 288.342,172.033 288.565,168.485 288.036 C 166.568 287.751,163.020 287.279,160.600 286.987 C 154.588 286.263,145.736 283.213,141.686 280.470 C 140.817 279.881,139.059 278.699,137.780 277.841 C 136.501 276.984,134.722 275.627,133.827 274.827 C 132.932 274.026,131.499 272.854,130.643 272.222 C 129.017 271.022,124.296 266.217,122.741 264.181 C 122.245 263.532,120.901 261.972,119.755 260.715 C 118.608 259.458,117.554 257.900,117.412 257.252 C 117.269 256.605,116.528 255.038,115.765 253.770 C 106.126 237.764,105.790 206.522,115.109 192.888 C 115.669 192.070,116.552 190.322,117.071 189.003 C 117.690 187.435,118.751 185.846,120.143 184.403 C 121.312 183.192,122.967 181.210,123.820 180.000 C 126.527 176.160,128.542 173.942,130.600 172.537 C 131.700 171.787,134.220 169.915,136.200 168.378 C 140.901 164.730,145.720 162.269,149.745 161.463 C 151.475 161.117,154.085 160.269,155.545 159.579 C 159.868 157.537,171.632 156.862,179.800 158.187 M39.679 205.076 C 39.635 207.767,39.768 210.056,39.974 210.184 C 40.397 210.445,40.997 207.134,40.673 206.325 C 40.558 206.036,40.413 206.520,40.353 207.400 C 40.292 208.280,40.133 207.020,40.000 204.600 L 39.758 200.200 39.679 205.076 M256.501 201.800 C 256.505 202.680,256.587 202.993,256.683 202.495 C 256.779 201.998,256.775 201.278,256.675 200.895 C 256.575 200.513,256.496 200.920,256.501 201.800 M273.309 203.200 C 273.309 204.190,273.387 204.595,273.482 204.100 C 273.578 203.605,273.578 202.795,273.482 202.300 C 273.387 201.805,273.309 202.210,273.309 203.200 M174.926 204.460 C 177.369 205.746,177.060 208.354,174.100 211.436 C 166.164 219.701,165.139 221.450,166.076 225.139 C 167.898 232.320,176.338 232.320,183.081 225.139 C 187.120 220.838,187.608 220.400,188.364 220.400 C 192.142 220.400,191.625 227.144,187.352 233.600 C 180.076 244.595,163.773 243.522,157.573 231.641 L 155.963 228.556 156.081 222.161 L 156.200 215.767 157.600 213.425 C 159.345 210.507,162.518 206.968,164.158 206.112 C 167.700 204.261,173.003 203.448,174.926 204.460 M306.120 211.200 C 306.120 212.410,306.195 212.905,306.287 212.300 C 306.378 211.695,306.378 210.705,306.287 210.100 C 306.195 209.495,306.120 209.990,306.120 211.200 M306.914 213.800 C 306.917 214.900,306.995 215.303,307.087 214.695 C 307.179 214.086,307.177 213.186,307.082 212.695 C 306.987 212.203,306.911 212.700,306.914 213.800 M84.569 224.200 C 84.570 228.820,84.628 230.655,84.699 228.278 C 84.770 225.901,84.769 222.121,84.698 219.878 C 84.627 217.635,84.569 219.580,84.569 224.200 M276.114 218.600 C 276.117 219.700,276.195 220.103,276.287 219.495 C 276.379 218.886,276.377 217.986,276.282 217.495 C 276.187 217.003,276.111 217.500,276.114 218.600 M116.093 218.400 C 116.093 219.170,116.175 219.485,116.276 219.100 C 116.376 218.715,116.376 218.085,116.276 217.700 C 116.175 217.315,116.093 217.630,116.093 218.400 M70.555 223.000 C 70.556 225.860,70.620 226.978,70.697 225.483 C 70.774 223.989,70.774 221.649,70.696 220.283 C 70.618 218.918,70.555 220.140,70.555 223.000 M115.324 221.000 C 115.326 222.320,115.401 222.812,115.490 222.093 C 115.579 221.374,115.577 220.294,115.486 219.693 C 115.395 219.092,115.322 219.680,115.324 221.000 M215.350 223.000 C 215.351 225.420,215.416 226.358,215.496 225.085 C 215.576 223.812,215.575 221.832,215.494 220.685 C 215.414 219.538,215.349 220.580,215.350 223.000 M276.934 221.600 C 276.934 223.250,277.005 223.925,277.091 223.100 C 277.178 222.275,277.178 220.925,277.091 220.100 C 277.005 219.275,276.934 219.950,276.934 221.600 M131.737 223.400 C 131.739 225.160,131.809 225.830,131.893 224.889 C 131.978 223.949,131.977 222.509,131.891 221.689 C 131.805 220.870,131.736 221.640,131.737 223.400 M276.120 224.000 C 276.120 225.210,276.195 225.705,276.287 225.100 C 276.378 224.495,276.378 223.505,276.287 222.900 C 276.195 222.295,276.120 222.790,276.120 224.000 M306.909 232.400 C 306.909 233.390,306.987 233.795,307.082 233.300 C 307.178 232.805,307.178 231.995,307.082 231.500 C 306.987 231.005,306.909 231.410,306.909 232.400 M115.693 232.800 C 115.693 233.570,115.775 233.885,115.876 233.500 C 115.976 233.115,115.976 232.485,115.876 232.100 C 115.775 231.715,115.693 232.030,115.693 232.800 M306.093 234.800 C 306.093 235.570,306.175 235.885,306.276 235.500 C 306.376 235.115,306.376 234.485,306.276 234.100 C 306.175 233.715,306.093 234.030,306.093 234.800 M39.680 239.467 L 39.760 244.600 39.985 240.000 C 40.143 236.764,40.281 235.874,40.451 237.000 C 40.681 238.533,40.690 238.518,40.646 236.631 C 40.618 235.446,40.401 234.597,40.100 234.498 C 39.715 234.371,39.618 235.511,39.680 239.467 M273.301 238.600 C 273.305 239.480,273.387 239.793,273.483 239.295 C 273.579 238.798,273.575 238.078,273.475 237.695 C 273.375 237.313,273.296 237.720,273.301 238.600 M273.714 243.400 C 273.717 244.500,273.795 244.903,273.887 244.295 C 273.979 243.686,273.977 242.786,273.882 242.295 C 273.787 241.803,273.711 242.300,273.714 243.400 M76.460 258.667 C 76.427 259.144,76.284 259.864,76.141 260.267 C 75.942 260.831,75.995 260.896,76.372 260.549 C 76.642 260.301,76.785 259.581,76.691 258.949 C 76.570 258.139,76.502 258.056,76.460 258.667 M169.700 265.487 C 170.305 265.578,171.295 265.578,171.900 265.487 C 172.505 265.395,172.010 265.320,170.800 265.320 C 169.590 265.320,169.095 265.395,169.700 265.487 M175.305 265.487 C 175.914 265.579,176.814 265.577,177.305 265.482 C 177.797 265.387,177.300 265.311,176.200 265.314 C 175.100 265.317,174.697 265.395,175.305 265.487 M298.428 267.876 C 298.518 268.915,299.144 269.796,299.172 268.924 C 299.187 268.442,299.020 267.936,298.800 267.800 C 298.580 267.664,298.413 267.698,298.428 267.876 M170.300 279.089 C 171.015 279.178,172.185 279.178,172.900 279.089 C 173.615 279.001,173.030 278.928,171.600 278.928 C 170.170 278.928,169.585 279.001,170.300 279.089 M253.809 285.591 C 253.415 286.025,252.909 286.268,252.685 286.129 C 252.442 285.979,252.400 286.076,252.580 286.368 C 252.839 286.787,254.800 285.517,254.800 284.930 C 254.800 284.634,254.484 284.844,253.809 285.591 M177.105 357.883 C 177.602 357.979,178.322 357.975,178.705 357.875 C 179.087 357.775,178.680 357.696,177.800 357.701 C 176.920 357.705,176.607 357.787,177.105 357.883 " stroke="none" fill="#5a92d5" fill-rule="evenodd"></path><path id="path1" d="M315.598 15.740 C 312.698 16.523,303.950 23.748,304.610 24.816 C 304.709 24.977,304.478 25.355,304.096 25.655 C 303.466 26.148,303.452 26.133,303.949 25.500 C 305.348 23.716,303.563 25.150,299.966 28.700 C 296.097 32.518,294.342 34.905,297.700 31.781 L 299.400 30.200 297.850 31.868 C 296.997 32.786,296.097 33.462,295.850 33.371 C 295.406 33.207,287.200 40.780,287.200 41.353 C 287.200 41.515,287.408 41.519,287.662 41.362 C 287.950 41.184,288.015 41.252,287.834 41.545 C 287.675 41.802,287.394 41.920,287.210 41.806 C 286.232 41.202,265.627 62.772,265.607 64.420 C 265.603 64.761,265.434 65.211,265.232 65.420 C 263.157 67.562,262.259 78.831,262.487 99.867 C 262.549 105.624,262.544 110.278,262.476 110.210 C 262.408 110.141,261.508 111.009,260.476 112.138 C 259.444 113.267,258.348 114.391,258.039 114.635 C 257.730 114.879,257.591 115.262,257.729 115.486 C 257.868 115.710,257.580 116.232,257.091 116.647 L 256.200 117.400 256.962 116.500 C 257.381 116.005,257.527 115.600,257.286 115.600 C 257.044 115.600,256.736 115.780,256.600 116.000 C 255.896 117.139,252.948 115.276,248.200 110.690 C 247.320 109.840,245.430 108.559,244.000 107.842 C 242.570 107.126,239.982 105.608,238.249 104.470 C 236.515 103.331,234.895 102.400,234.649 102.399 C 234.192 102.398,228.116 99.354,224.740 97.434 C 223.675 96.828,221.508 96.135,219.665 95.811 C 217.896 95.500,215.943 94.985,215.325 94.665 C 214.706 94.345,213.390 93.877,212.400 93.624 C 211.410 93.371,209.576 92.717,208.324 92.171 C 207.073 91.624,204.553 90.980,202.724 90.740 C 200.896 90.499,198.085 89.871,196.477 89.344 C 187.678 86.461,152.774 86.738,143.632 89.764 C 141.964 90.316,139.520 91.114,138.200 91.538 C 136.880 91.962,134.090 92.959,132.000 93.753 C 129.910 94.547,126.760 95.492,125.000 95.852 C 123.017 96.258,121.192 96.923,120.200 97.600 C 119.320 98.200,117.610 98.987,116.400 99.348 C 115.190 99.709,112.670 100.905,110.800 102.005 C 107.801 103.770,105.035 105.187,98.900 108.103 C 97.965 108.548,97.200 109.058,97.200 109.239 C 97.200 109.419,95.966 110.551,94.457 111.754 C 92.948 112.958,91.463 114.181,91.157 114.472 C 90.850 114.762,89.789 115.650,88.799 116.445 C 87.810 117.240,86.438 118.410,85.751 119.045 C 85.064 119.680,82.743 121.820,80.593 123.800 C 73.654 130.191,71.482 132.613,71.744 133.670 C 71.850 134.099,71.720 134.268,71.385 134.139 C 71.096 134.028,70.531 134.446,70.130 135.069 C 69.729 135.691,68.231 137.388,66.800 138.841 C 63.689 142.001,61.340 145.207,59.357 149.000 C 58.552 150.540,57.310 152.610,56.597 153.600 C 55.885 154.590,55.163 155.846,54.995 156.391 C 54.826 156.936,54.098 158.240,53.376 159.289 C 51.986 161.310,51.350 163.272,51.832 164.052 C 52.002 164.327,51.952 164.418,51.713 164.270 C 51.155 163.925,48.669 169.057,48.924 170.029 C 49.035 170.454,48.982 170.712,48.807 170.604 C 48.147 170.196,45.352 178.075,45.863 178.901 C 46.006 179.134,45.936 179.208,45.707 179.066 C 44.823 178.520,43.336 182.409,43.109 185.861 C 43.049 186.775,42.885 187.452,42.744 187.365 C 41.458 186.573,39.986 194.997,40.057 202.744 C 40.092 206.656,40.221 208.401,40.400 207.400 C 40.608 206.240,40.702 206.089,40.743 206.850 C 40.832 208.501,40.343 210.412,39.901 210.139 C 39.651 209.984,39.562 210.427,39.666 211.317 C 39.758 212.102,39.700 212.662,39.538 212.562 C 39.088 212.284,38.418 215.003,37.953 218.997 C 37.374 223.968,38.474 232.896,39.581 232.212 C 39.748 232.109,39.795 232.492,39.686 233.065 C 39.551 233.767,39.700 234.224,40.143 234.472 C 40.622 234.740,40.785 235.350,40.743 236.720 L 40.686 238.600 40.400 237.000 C 40.221 235.997,40.093 237.715,40.058 241.600 C 39.984 249.951,41.694 259.109,43.163 258.227 C 43.293 258.149,43.420 259.191,43.444 260.542 C 43.480 262.519,43.773 263.566,44.944 265.890 C 45.745 267.480,46.400 269.138,46.400 269.576 C 46.400 271.878,49.913 279.917,50.820 279.690 C 51.062 279.630,51.144 279.767,51.003 279.995 C 50.637 280.588,52.208 284.577,53.611 286.615 C 54.265 287.566,54.800 288.475,54.800 288.634 C 54.800 288.794,55.261 289.529,55.824 290.267 C 56.388 291.006,57.305 292.643,57.863 293.905 C 58.876 296.195,59.482 296.920,60.076 296.553 C 60.249 296.446,60.294 296.612,60.175 296.921 C 59.836 297.804,61.451 300.246,65.386 304.800 C 67.382 307.110,69.639 309.810,70.401 310.800 C 72.200 313.137,74.067 315.025,74.460 314.905 C 74.631 314.852,74.672 315.068,74.551 315.384 C 74.038 316.721,77.706 320.476,78.840 319.775 C 79.106 319.611,79.222 319.641,79.097 319.843 C 78.783 320.352,82.325 324.139,83.849 324.924 C 84.537 325.279,85.851 326.466,86.770 327.564 C 87.689 328.662,89.107 329.971,89.921 330.472 C 91.690 331.563,92.403 332.140,94.335 334.045 C 95.637 335.329,100.834 338.800,101.453 338.800 C 101.585 338.800,102.529 339.413,103.550 340.163 C 104.571 340.913,106.567 341.917,107.984 342.395 C 111.378 343.538,112.695 344.236,114.483 345.839 C 115.407 346.666,116.842 347.403,118.283 347.790 C 122.872 349.022,129.843 351.316,131.966 352.293 C 133.158 352.841,135.417 353.513,136.986 353.785 C 138.555 354.058,141.072 354.774,142.578 355.377 C 145.101 356.386,145.970 356.501,153.559 356.834 C 158.091 357.034,163.240 357.370,165.000 357.581 C 169.819 358.161,183.290 358.043,186.600 357.392 C 188.140 357.089,191.830 356.670,194.800 356.460 C 198.875 356.173,200.838 355.838,202.800 355.097 C 204.230 354.556,206.424 353.987,207.676 353.831 C 208.967 353.671,211.161 352.953,212.742 352.174 C 214.276 351.418,215.862 350.794,216.266 350.786 C 216.670 350.779,218.350 350.239,220.000 349.588 C 221.650 348.936,223.192 348.402,223.427 348.401 C 224.655 348.397,228.113 347.054,229.156 346.176 C 229.813 345.623,232.026 344.364,234.075 343.379 C 239.374 340.829,240.154 340.409,244.400 337.810 C 248.812 335.109,254.926 330.648,257.810 328.027 C 258.915 327.022,260.753 325.480,261.894 324.600 C 263.035 323.720,263.975 322.775,263.984 322.500 C 263.993 322.225,264.145 322.000,264.322 322.000 C 265.126 322.000,270.055 316.653,269.877 315.973 C 269.768 315.556,269.880 315.321,270.145 315.408 C 270.395 315.490,271.353 314.531,272.272 313.278 C 274.239 310.599,274.826 309.858,278.800 305.033 C 282.774 300.208,286.800 294.919,286.802 294.520 C 286.806 293.777,292.009 284.604,293.740 282.288 C 294.270 281.580,294.946 280.280,295.243 279.400 C 295.540 278.520,296.169 277.260,296.641 276.600 C 297.959 274.757,298.923 271.366,298.697 269.363 C 298.589 268.401,298.619 267.688,298.765 267.779 C 298.911 267.869,299.441 267.011,299.942 265.871 C 300.443 264.732,301.280 262.900,301.803 261.800 C 303.242 258.773,304.089 255.364,303.937 253.209 C 303.862 252.145,303.911 251.344,304.047 251.428 C 304.182 251.513,304.686 250.385,305.167 248.922 C 307.731 241.109,307.747 203.745,305.188 198.200 C 304.548 196.814,304.175 195.033,303.972 192.400 C 303.689 188.733,302.896 185.680,301.922 184.506 C 301.665 184.196,301.053 182.470,300.561 180.671 C 300.070 178.872,299.375 176.320,299.015 175.000 C 298.656 173.680,297.761 171.340,297.027 169.800 C 296.292 168.260,295.367 166.190,294.971 165.200 C 294.574 164.210,294.033 163.130,293.769 162.800 C 293.504 162.470,292.875 161.210,292.370 160.000 C 291.865 158.790,291.125 157.371,290.726 156.846 C 290.327 156.321,290.000 155.741,290.000 155.557 C 290.000 154.498,287.828 150.780,287.322 150.974 C 286.994 151.100,286.867 151.016,287.017 150.772 C 287.404 150.146,285.174 147.124,284.513 147.378 C 284.208 147.495,284.064 147.420,284.193 147.211 C 284.322 147.003,283.604 145.476,282.598 143.818 C 280.309 140.047,280.657 139.146,285.741 135.688 L 287.282 134.639 303.141 134.740 C 323.637 134.871,325.515 134.680,330.851 131.915 C 333.069 130.765,335.270 129.325,335.742 128.713 C 337.324 126.661,343.785 120.195,345.200 119.246 C 345.970 118.730,347.086 117.618,347.681 116.776 C 348.275 115.933,349.265 114.928,349.881 114.543 C 351.217 113.706,355.894 109.230,360.400 104.476 C 361.390 103.432,364.065 100.830,366.345 98.694 C 369.235 95.986,370.417 94.621,370.249 94.184 C 370.110 93.820,370.177 93.662,370.410 93.806 C 372.511 95.105,379.773 84.512,379.018 81.249 C 378.861 80.570,378.902 80.388,379.132 80.734 C 380.850 83.304,380.236 71.041,378.405 66.200 C 377.975 65.064,375.247 62.245,373.433 61.061 C 370.173 58.934,359.125 57.763,352.000 58.791 C 349.281 59.183,339.725 59.396,338.000 59.104 L 337.000 58.934 336.989 45.167 L 336.979 31.400 337.197 45.200 L 337.416 59.000 337.508 44.336 C 337.623 25.985,337.376 24.975,331.195 18.558 C 328.110 15.354,321.472 14.155,315.598 15.740 M325.207 25.450 C 328.321 26.696,328.379 27.084,328.417 47.000 C 328.451 64.820,328.529 65.500,330.706 66.864 L 332.200 67.800 348.400 67.905 C 368.125 68.033,370.281 68.393,372.688 71.965 C 375.086 75.524,372.688 80.018,364.087 88.081 C 362.389 89.672,358.840 93.140,356.200 95.787 C 353.560 98.434,350.408 101.500,349.195 102.600 C 347.982 103.700,346.146 105.500,345.115 106.600 C 339.663 112.418,329.353 121.884,327.351 122.910 C 323.161 125.058,322.421 125.128,303.440 125.173 C 282.570 125.223,282.337 125.278,278.395 131.008 C 277.758 131.933,276.060 133.646,274.621 134.813 C 269.663 138.836,269.450 141.054,273.501 146.477 C 276.701 150.760,278.314 152.866,279.108 153.800 C 280.456 155.386,284.779 162.896,285.587 165.057 C 286.042 166.272,287.128 168.451,288.001 169.898 C 288.874 171.345,289.708 173.176,289.855 173.965 C 290.002 174.754,290.883 176.930,291.813 178.800 C 293.870 182.938,293.947 183.183,294.361 186.872 C 294.564 188.679,295.171 190.910,295.931 192.643 C 297.096 195.297,297.183 195.839,297.372 201.614 C 297.630 209.485,297.962 213.840,298.440 215.600 C 299.203 218.414,299.317 224.463,298.677 228.200 C 297.952 232.439,297.697 235.563,297.381 244.118 C 297.201 248.971,296.960 250.966,296.343 252.718 C 295.901 253.973,294.859 257.160,294.027 259.800 C 293.196 262.440,292.112 265.590,291.618 266.800 C 291.124 268.010,290.306 270.214,289.800 271.697 C 289.295 273.181,288.257 275.341,287.493 276.497 C 286.730 277.654,285.720 279.320,285.248 280.200 C 284.777 281.080,283.673 282.943,282.796 284.340 C 281.918 285.737,281.200 286.962,281.200 287.061 C 281.200 287.424,276.831 293.933,276.415 294.190 C 276.180 294.336,275.084 295.793,273.980 297.429 C 272.877 299.065,271.206 301.267,270.268 302.323 C 269.330 303.380,267.547 305.584,266.306 307.222 C 262.881 311.744,261.374 313.236,252.187 321.200 C 248.563 324.342,244.171 327.645,242.800 328.260 C 242.470 328.409,240.576 329.477,238.590 330.635 C 236.605 331.793,234.080 333.096,232.980 333.529 C 231.879 333.963,229.094 335.348,226.790 336.608 C 220.493 340.049,217.949 341.117,213.991 341.981 C 212.012 342.413,209.809 343.033,209.096 343.358 C 206.204 344.679,204.601 345.216,202.455 345.582 C 201.215 345.793,199.120 346.163,197.800 346.404 C 196.480 346.645,193.780 347.001,191.800 347.197 C 187.300 347.641,185.755 347.852,179.936 348.822 C 173.624 349.875,162.116 349.508,159.978 348.187 C 159.822 348.090,156.568 347.650,152.747 347.208 C 144.617 346.267,136.276 344.279,134.200 342.786 C 133.980 342.627,132.614 342.205,131.165 341.847 C 126.360 340.659,119.840 338.126,116.917 336.311 C 115.332 335.327,113.172 334.198,112.117 333.801 C 111.063 333.405,109.750 332.775,109.200 332.400 C 108.650 332.025,106.743 330.966,104.961 330.047 C 103.180 329.127,100.750 327.544,99.561 326.529 C 98.373 325.515,96.694 324.238,95.831 323.693 C 94.968 323.148,93.438 321.953,92.431 321.036 C 91.424 320.120,89.610 318.624,88.400 317.712 C 83.617 314.109,78.884 308.843,75.690 303.574 C 75.215 302.789,74.436 301.799,73.960 301.374 C 73.483 300.948,72.409 299.700,71.572 298.600 C 70.736 297.500,69.365 295.847,68.526 294.926 C 67.687 294.006,66.202 291.666,65.227 289.726 C 64.252 287.787,63.037 285.643,62.527 284.962 C 62.017 284.281,61.600 283.605,61.600 283.458 C 61.600 282.913,59.818 279.359,58.964 278.200 C 56.767 275.219,53.704 267.844,52.900 263.600 C 52.671 262.390,51.904 260.140,51.195 258.600 C 50.265 256.578,49.753 254.633,49.353 251.600 C 48.402 244.397,46.682 236.033,45.411 232.431 C 44.118 228.765,44.780 214.532,46.557 207.800 C 47.370 204.720,48.487 199.140,49.038 195.400 C 49.866 189.780,50.240 188.245,51.192 186.555 C 51.826 185.430,52.637 183.097,52.993 181.371 C 53.350 179.644,53.789 178.045,53.968 177.816 C 54.147 177.587,54.613 176.410,55.003 175.200 C 55.393 173.990,56.023 172.550,56.402 172.000 C 57.528 170.367,61.200 163.204,61.200 162.641 C 61.200 162.354,61.752 161.358,62.427 160.427 C 63.102 159.495,64.427 157.130,65.372 155.171 C 66.316 153.212,67.823 150.814,68.719 149.842 C 69.615 148.870,71.006 147.158,71.811 146.037 C 72.616 144.917,73.430 144.000,73.620 144.000 C 73.809 144.000,75.087 142.515,76.459 140.700 C 77.831 138.885,79.077 137.310,79.226 137.200 C 79.376 137.090,79.983 136.280,80.576 135.400 C 81.609 133.866,88.934 127.200,89.587 127.200 C 89.761 127.200,91.140 126.058,92.651 124.663 C 98.135 119.601,101.130 117.333,103.473 116.466 C 104.753 115.993,106.880 114.970,108.200 114.192 C 109.520 113.415,112.940 111.610,115.800 110.180 C 118.660 108.751,121.645 107.224,122.433 106.786 C 123.221 106.349,124.931 105.718,126.233 105.384 C 129.670 104.503,138.330 101.668,140.238 100.800 C 142.652 99.701,146.180 98.892,149.800 98.608 C 153.319 98.331,162.305 97.316,164.200 96.982 C 164.860 96.865,166.697 96.506,168.283 96.185 C 172.039 95.423,173.013 95.445,176.929 96.384 C 180.837 97.320,188.573 98.399,191.384 98.401 C 194.413 98.403,200.005 99.486,203.917 100.827 C 205.833 101.484,209.830 102.638,212.800 103.392 C 219.716 105.147,221.284 105.714,223.768 107.356 C 224.886 108.095,227.283 109.443,229.096 110.352 C 230.909 111.261,233.376 112.634,234.577 113.403 C 235.779 114.171,236.851 114.800,236.959 114.800 C 237.632 114.800,242.648 118.132,245.052 120.176 C 251.884 125.982,252.585 126.400,255.499 126.400 C 257.124 126.400,257.470 126.221,258.953 124.616 C 259.859 123.636,261.824 121.512,263.319 119.897 C 264.815 118.282,266.675 116.618,267.453 116.200 C 270.879 114.354,271.120 112.804,271.400 90.800 C 271.527 80.790,271.727 71.654,271.845 70.498 L 272.058 68.396 279.857 60.698 C 284.146 56.464,293.388 47.297,300.393 40.327 C 312.466 28.315,315.207 25.899,317.581 25.178 C 319.397 24.627,323.517 24.773,325.207 25.450 M306.335 56.281 C 304.228 58.436,300.816 61.976,298.752 64.148 C 296.688 66.319,293.432 69.662,291.516 71.576 C 286.588 76.501,286.348 77.164,286.301 86.000 C 286.253 95.025,286.846 96.475,290.080 95.246 C 291.193 94.823,292.585 93.480,302.900 82.886 C 313.003 72.510,312.698 73.091,313.227 63.272 C 313.903 50.738,312.823 49.643,306.335 56.281 M360.300 59.494 C 359.255 59.576,357.545 59.576,356.500 59.494 C 355.455 59.412,356.310 59.344,358.400 59.344 C 360.490 59.344,361.345 59.412,360.300 59.494 M379.476 75.100 C 379.375 75.485,379.293 75.170,379.293 74.400 C 379.293 73.630,379.375 73.315,379.476 73.700 C 379.576 74.085,379.576 74.715,379.476 75.100 M330.200 81.981 C 323.963 82.399,324.238 82.220,313.649 92.781 C 308.452 97.963,303.734 102.567,303.164 103.010 C 300.566 105.029,300.581 108.189,303.196 109.734 C 304.902 110.742,317.744 110.712,319.200 109.697 C 320.241 108.971,336.383 92.878,339.695 89.265 C 345.756 82.652,343.704 81.077,330.200 81.981 M263.098 105.900 C 263.026 108.045,262.967 106.290,262.967 102.000 C 262.967 97.710,263.026 95.955,263.098 98.100 C 263.170 100.245,263.170 103.755,263.098 105.900 M160.798 111.720 C 160.689 111.820,158.800 112.008,156.600 112.138 C 151.282 112.450,149.089 112.917,146.117 114.366 C 144.752 115.032,142.079 115.960,140.177 116.428 C 138.276 116.896,135.743 117.711,134.549 118.240 C 133.354 118.768,132.172 119.200,131.920 119.200 C 131.221 119.200,119.578 125.158,118.075 126.285 C 117.346 126.832,115.186 128.057,113.275 129.008 C 109.754 130.761,106.234 133.322,102.600 136.777 C 101.500 137.823,99.970 139.055,99.200 139.516 C 97.154 140.739,89.003 149.418,85.347 154.265 C 84.545 155.329,82.948 157.195,81.800 158.412 C 79.557 160.788,78.655 162.264,78.225 164.263 C 78.075 164.957,77.333 166.397,76.576 167.462 C 75.819 168.526,75.200 169.593,75.200 169.832 C 75.200 170.071,74.480 171.633,73.600 173.303 C 72.720 174.974,72.000 176.557,72.000 176.821 C 72.000 177.086,71.101 179.070,70.003 181.232 C 68.465 184.260,67.861 186.006,67.371 188.843 C 66.932 191.388,66.284 193.401,65.274 195.362 L 63.813 198.200 63.706 205.600 C 63.638 210.300,63.379 214.022,62.995 215.800 C 62.129 219.820,62.038 222.772,62.677 226.092 C 62.986 227.691,63.380 232.960,63.553 237.800 C 63.834 245.644,63.960 246.774,64.718 248.200 C 66.494 251.541,66.818 252.475,67.227 255.412 C 67.883 260.130,72.818 271.856,76.522 277.499 C 77.140 278.440,77.846 279.792,78.091 280.505 C 78.792 282.541,80.391 284.887,83.103 287.858 C 87.799 293.003,90.000 295.593,90.000 295.974 C 90.000 296.183,91.035 297.432,92.300 298.750 C 93.565 300.067,95.050 301.775,95.600 302.547 C 96.150 303.318,97.315 304.355,98.189 304.850 C 99.063 305.346,100.332 306.302,101.010 306.976 C 101.687 307.649,102.952 308.730,103.821 309.378 C 104.689 310.025,106.390 311.509,107.600 312.674 C 108.810 313.839,111.060 315.454,112.600 316.262 C 114.140 317.071,115.940 318.133,116.600 318.623 C 117.260 319.113,119.510 320.367,121.600 321.409 C 123.690 322.451,126.171 323.834,127.113 324.480 C 129.566 326.164,131.862 327.100,135.243 327.794 C 138.432 328.448,140.573 329.156,143.953 330.672 C 147.440 332.236,149.906 332.703,156.229 332.996 C 159.513 333.148,163.460 333.441,165.000 333.646 C 170.506 334.381,173.944 334.501,177.048 334.064 C 178.782 333.820,181.910 333.523,184.000 333.404 C 196.206 332.706,196.448 332.665,202.600 330.223 C 205.020 329.263,207.890 328.354,208.977 328.203 C 211.568 327.843,217.503 325.265,220.368 323.255 C 221.619 322.378,223.697 321.193,224.986 320.623 C 226.276 320.053,228.555 318.779,230.052 317.793 C 231.549 316.807,232.867 316.000,232.979 316.000 C 233.412 316.000,237.463 313.247,238.017 312.576 C 238.338 312.188,239.132 311.546,239.781 311.150 C 242.689 309.377,250.861 301.434,253.722 297.600 C 254.625 296.390,256.452 294.210,257.782 292.755 C 262.689 287.386,269.905 276.986,271.627 272.800 C 272.125 271.590,272.856 270.235,273.252 269.789 C 274.072 268.865,274.949 266.550,275.369 264.200 C 275.526 263.320,276.262 261.054,277.003 259.164 C 277.745 257.275,278.741 253.691,279.218 251.201 C 279.694 248.710,280.494 245.576,280.994 244.236 C 282.490 240.233,282.897 233.928,282.713 217.600 L 282.548 203.000 281.434 200.200 C 280.282 197.305,279.920 196.036,278.410 189.600 C 277.920 187.510,277.371 185.618,277.191 185.396 C 277.010 185.174,276.321 183.510,275.660 181.698 C 274.998 179.886,274.070 177.860,273.596 177.194 C 273.122 176.529,272.324 174.936,271.822 173.655 C 270.160 169.415,266.069 163.216,261.906 158.627 C 261.520 158.202,260.826 157.122,260.364 156.227 C 257.519 150.724,256.298 151.419,240.967 167.262 C 235.283 173.137,235.229 173.722,239.768 180.313 C 241.325 182.574,242.907 185.004,243.282 185.713 C 244.992 188.943,246.812 193.206,247.418 195.400 C 247.783 196.720,248.404 198.363,248.798 199.050 C 250.074 201.276,250.749 204.466,251.402 211.349 C 251.754 215.061,252.183 218.848,252.354 219.765 C 252.754 221.906,252.665 225.101,252.054 230.600 C 251.785 233.020,251.379 236.800,251.152 239.000 C 250.884 241.608,250.388 243.835,249.727 245.400 C 249.170 246.720,248.215 249.452,247.605 251.471 C 246.995 253.490,246.141 255.650,245.706 256.271 C 245.272 256.892,244.787 257.937,244.627 258.593 C 244.468 259.249,243.572 260.959,242.635 262.393 C 241.698 263.827,240.553 265.830,240.090 266.844 C 239.609 267.899,237.826 270.133,235.924 272.065 C 234.096 273.922,230.000 278.103,226.822 281.355 C 219.723 288.621,217.675 290.058,207.600 294.847 C 205.730 295.736,202.940 297.064,201.400 297.799 C 198.776 299.051,195.366 300.108,192.600 300.526 C 191.940 300.626,190.500 300.995,189.400 301.345 C 187.180 302.051,173.337 303.225,170.200 302.973 C 169.100 302.885,165.845 302.626,162.968 302.397 C 160.090 302.169,156.565 301.648,155.135 301.239 C 153.705 300.830,151.199 300.277,149.567 300.010 C 146.424 299.497,136.603 295.207,134.400 293.385 C 134.070 293.112,132.540 292.249,131.000 291.467 C 129.460 290.686,127.300 289.325,126.200 288.445 C 125.100 287.564,122.850 285.802,121.200 284.530 C 116.687 281.051,114.932 279.320,112.983 276.428 C 112.010 274.983,109.855 272.094,108.195 270.009 C 106.367 267.714,104.475 264.748,103.399 262.492 C 102.422 260.442,101.363 258.505,101.046 258.188 C 100.729 257.871,100.084 256.394,99.613 254.906 C 99.142 253.418,98.565 251.852,98.330 251.428 C 95.469 246.252,94.888 244.734,94.620 241.725 C 94.243 237.493,93.297 231.147,92.585 228.075 C 91.740 224.427,91.858 220.527,92.947 216.072 C 93.468 213.943,94.114 209.950,94.382 207.200 C 94.832 202.575,94.999 201.937,96.612 198.692 C 97.572 196.763,98.819 193.668,99.384 191.815 C 99.949 189.962,100.636 188.210,100.909 187.923 C 101.478 187.325,104.138 181.900,104.598 180.400 C 105.198 178.445,105.562 178.030,118.400 164.672 C 122.553 160.351,126.903 156.857,129.977 155.374 C 131.061 154.851,133.133 153.698,134.581 152.812 C 136.029 151.925,137.312 151.200,137.433 151.200 C 137.553 151.200,138.655 150.741,139.883 150.179 C 141.110 149.618,143.466 148.879,145.119 148.537 C 146.771 148.196,149.438 147.309,151.044 146.567 C 157.780 143.455,184.901 143.349,192.072 146.406 C 193.683 147.092,196.151 147.922,197.557 148.249 C 198.964 148.576,201.259 149.363,202.657 149.997 C 204.056 150.631,205.200 151.084,205.200 151.005 C 205.200 150.581,215.971 156.624,216.570 157.384 C 219.353 160.913,223.643 161.953,226.394 159.766 C 229.326 157.436,242.275 144.202,243.005 142.789 C 244.534 139.834,243.227 136.009,240.093 134.267 C 238.179 133.203,235.662 131.468,229.375 126.879 C 227.475 125.492,225.084 124.027,224.060 123.623 C 223.037 123.220,220.040 121.800,217.400 120.469 C 211.769 117.629,209.104 116.695,204.200 115.843 C 202.220 115.499,198.710 114.602,196.400 113.851 C 194.090 113.099,191.480 112.365,190.600 112.219 C 188.742 111.911,161.093 111.448,160.798 111.720 M262.000 111.722 C 262.000 111.788,261.325 112.463,260.500 113.222 L 259.000 114.600 260.378 113.100 C 261.662 111.704,262.000 111.416,262.000 111.722 M183.573 121.595 C 185.238 122.033,189.120 122.649,192.200 122.964 C 196.664 123.420,198.368 123.778,200.600 124.726 C 202.140 125.380,204.570 126.041,206.000 126.195 C 208.840 126.502,212.287 127.860,215.391 129.895 C 216.486 130.613,217.571 131.200,217.802 131.200 C 218.508 131.200,224.148 134.011,225.000 134.787 C 225.440 135.188,226.430 135.855,227.200 136.270 C 229.069 137.276,233.200 140.062,233.200 140.315 C 233.200 140.426,232.435 141.359,231.500 142.387 C 230.565 143.416,229.502 144.605,229.137 145.029 C 224.979 149.868,222.573 150.732,219.752 148.401 C 218.687 147.521,217.183 146.593,216.408 146.339 C 215.634 146.084,213.470 145.065,211.600 144.073 C 204.510 140.313,200.916 138.701,198.400 138.151 C 194.678 137.337,191.305 136.456,189.000 135.695 C 187.287 135.130,184.821 135.032,171.800 135.017 L 156.600 135.000 153.864 136.142 C 152.359 136.770,149.896 137.439,148.390 137.628 C 144.776 138.081,143.781 138.334,141.400 139.401 C 140.300 139.894,138.399 140.612,137.176 140.998 C 135.952 141.383,134.242 142.212,133.376 142.841 C 131.908 143.905,129.568 145.133,125.200 147.131 C 122.990 148.142,121.676 149.208,117.031 153.751 C 115.034 155.705,112.728 157.752,111.906 158.300 C 111.085 158.849,109.743 160.307,108.924 161.541 C 108.105 162.775,106.009 165.138,104.266 166.792 C 102.523 168.447,100.335 170.970,99.404 172.400 C 97.866 174.762,96.930 176.586,92.160 186.515 C 91.036 188.855,90.655 190.164,90.632 191.774 C 90.614 192.953,90.441 193.820,90.246 193.702 C 90.052 193.583,89.974 194.042,90.074 194.722 C 90.174 195.402,90.131 195.881,89.979 195.787 C 89.827 195.693,89.388 196.468,89.004 197.508 C 88.619 198.549,87.943 200.030,87.501 200.800 C 85.110 204.966,85.056 205.393,84.893 221.651 C 84.724 238.413,84.867 239.931,87.000 244.054 C 87.770 245.541,88.400 247.140,88.400 247.605 C 88.400 248.071,88.753 249.295,89.184 250.326 C 89.614 251.357,90.142 253.100,90.357 254.200 C 91.052 257.772,91.461 259.006,92.483 260.616 C 94.293 263.469,95.783 266.167,96.633 268.127 C 97.092 269.187,97.723 270.357,98.034 270.727 C 98.345 271.097,98.948 271.940,99.373 272.600 C 99.799 273.260,100.413 274.067,100.738 274.393 C 101.063 274.719,101.922 275.913,102.646 277.045 C 103.370 278.177,104.677 279.669,105.550 280.360 C 106.423 281.052,107.506 282.378,107.957 283.309 C 108.502 284.434,109.454 285.443,110.800 286.323 C 111.913 287.051,113.206 288.230,113.674 288.944 C 114.141 289.657,115.505 290.952,116.703 291.820 C 117.902 292.689,119.120 293.859,119.411 294.421 C 119.701 294.983,120.358 295.752,120.869 296.130 C 122.475 297.317,128.577 300.800,129.050 300.800 C 129.299 300.800,129.721 301.064,129.988 301.386 C 130.649 302.182,138.171 305.807,140.398 306.403 C 141.387 306.667,142.842 307.213,143.631 307.616 C 144.964 308.296,152.656 310.425,156.800 311.261 C 162.524 312.416,187.690 311.964,190.822 310.651 C 191.605 310.323,193.855 309.774,195.822 309.432 C 197.948 309.063,200.293 308.347,201.600 307.668 C 202.810 307.039,204.334 306.394,204.986 306.233 C 205.638 306.073,206.988 305.569,207.986 305.114 C 208.984 304.660,210.589 303.949,211.553 303.535 C 212.518 303.121,213.958 302.268,214.753 301.639 C 216.506 300.254,221.437 297.600,222.258 297.600 C 222.904 297.600,226.709 294.044,232.739 287.805 C 234.862 285.607,237.618 282.815,238.862 281.601 C 242.019 278.518,247.770 270.937,248.183 269.315 C 248.467 268.198,250.853 264.114,251.973 262.827 C 252.937 261.720,254.180 257.847,253.849 256.983 C 253.728 256.668,253.812 256.452,254.036 256.505 C 254.759 256.674,256.408 252.073,256.983 248.285 C 257.291 246.258,257.904 243.789,258.347 242.798 C 258.789 241.806,259.327 239.916,259.542 238.598 C 259.756 237.279,260.248 235.300,260.633 234.200 C 261.604 231.431,261.638 218.657,260.685 214.800 C 260.332 213.370,259.651 210.580,259.172 208.600 C 258.372 205.295,257.574 203.371,257.164 203.762 C 257.074 203.848,256.970 202.067,256.934 199.804 C 256.878 196.326,256.702 195.297,255.791 193.145 C 255.198 191.745,254.349 189.520,253.905 188.200 C 253.460 186.880,252.629 185.174,252.058 184.408 C 251.486 183.642,249.979 181.055,248.707 178.658 L 246.396 174.301 247.180 173.050 C 248.053 171.658,250.138 169.600,250.677 169.600 C 250.869 169.600,251.988 168.610,253.164 167.400 C 254.340 166.190,255.542 165.200,255.836 165.200 C 256.390 165.200,258.000 166.726,258.000 167.252 C 258.000 167.769,262.072 171.806,262.476 171.690 C 262.687 171.630,262.745 171.766,262.605 171.992 C 262.254 172.560,263.172 175.139,264.263 176.651 C 264.760 177.339,265.503 178.779,265.916 179.851 C 266.706 181.905,268.576 184.891,268.881 184.586 C 268.980 184.487,268.985 184.918,268.894 185.544 C 268.707 186.815,270.294 190.913,270.842 190.574 C 271.034 190.455,271.098 190.599,270.986 190.894 C 270.692 191.657,272.184 196.217,272.693 196.114 C 272.939 196.064,273.025 196.385,272.896 196.876 C 272.746 197.452,272.822 197.634,273.132 197.442 C 273.424 197.261,273.509 197.372,273.365 197.746 C 272.995 198.710,273.970 210.054,274.590 212.000 C 274.905 212.990,275.433 214.520,275.764 215.400 C 276.707 217.909,276.621 225.174,275.629 226.877 C 274.394 228.998,273.646 233.739,273.518 240.257 C 273.453 243.588,273.286 246.245,273.146 246.162 C 272.799 245.954,271.465 249.512,270.989 251.920 C 270.845 252.646,270.278 254.346,269.730 255.696 C 269.170 257.074,268.804 258.645,268.896 259.273 C 268.987 259.890,268.980 260.314,268.882 260.215 C 268.784 260.117,267.886 261.603,266.888 263.518 C 265.889 265.433,264.676 267.540,264.191 268.200 C 263.707 268.860,263.106 270.011,262.856 270.757 C 262.606 271.504,261.726 273.097,260.901 274.298 C 258.168 278.273,257.155 280.106,257.374 280.677 C 257.493 280.987,257.428 281.141,257.228 281.018 C 257.029 280.894,256.446 281.342,255.933 282.012 C 255.420 282.681,254.505 283.832,253.900 284.568 C 253.295 285.303,252.800 286.048,252.800 286.223 C 252.800 286.397,253.295 286.103,253.900 285.570 L 255.000 284.600 254.042 285.688 C 253.515 286.286,252.930 286.681,252.743 286.565 C 252.328 286.308,248.836 290.041,246.548 293.186 C 245.629 294.448,244.365 295.874,243.739 296.355 C 243.112 296.836,241.880 297.862,241.000 298.635 C 240.120 299.409,238.003 301.216,236.296 302.652 C 234.553 304.118,233.308 305.451,233.458 305.693 C 233.614 305.947,233.536 306.008,233.268 305.842 C 233.018 305.687,231.271 306.514,229.387 307.680 C 226.001 309.776,223.905 310.968,220.400 312.792 C 219.410 313.307,218.020 314.155,217.312 314.676 C 215.285 316.166,211.122 317.999,209.764 318.000 C 208.021 318.000,205.077 318.949,203.638 319.973 C 202.965 320.452,201.294 321.017,199.909 321.233 C 198.529 321.448,196.299 322.058,194.953 322.589 C 188.128 325.281,155.750 325.293,149.137 322.606 C 147.874 322.092,146.263 321.546,145.558 321.391 C 144.853 321.236,143.026 320.510,141.499 319.778 C 139.920 319.022,137.747 318.339,136.461 318.196 C 133.481 317.864,132.482 317.450,130.783 315.845 C 129.298 314.442,127.203 313.200,126.320 313.200 C 125.405 313.199,121.054 310.948,119.411 309.625 C 118.536 308.921,116.961 307.975,115.911 307.523 C 114.860 307.071,114.000 306.579,114.000 306.430 C 114.000 305.992,110.715 302.800,110.264 302.800 C 109.521 302.800,105.199 299.849,102.174 297.275 C 100.541 295.886,99.026 294.860,98.807 294.996 C 98.588 295.131,98.497 295.007,98.605 294.721 C 98.713 294.434,98.140 293.481,97.332 292.602 C 96.523 291.724,95.398 290.263,94.831 289.356 C 90.713 282.769,88.066 279.665,87.085 280.271 C 86.857 280.412,86.798 280.328,86.951 280.079 C 87.548 279.113,85.137 274.945,84.285 275.471 C 84.060 275.610,83.993 275.535,84.135 275.304 C 84.481 274.746,83.359 271.631,82.446 270.611 C 82.046 270.165,81.484 268.928,81.197 267.862 C 80.823 266.475,80.096 265.327,78.637 263.822 C 77.398 262.543,76.654 261.442,76.738 261.012 C 76.819 260.601,76.703 260.413,76.462 260.562 C 76.191 260.729,76.126 260.333,76.275 259.417 C 76.558 257.670,75.304 251.023,74.378 249.367 C 73.999 248.689,73.007 245.449,72.172 242.167 L 70.655 236.200 70.682 221.800 C 70.705 209.516,70.808 207.047,71.388 205.000 C 71.762 203.680,72.399 201.292,72.805 199.694 C 73.211 198.095,73.923 196.172,74.388 195.419 C 74.853 194.667,75.591 192.208,76.028 189.955 C 76.465 187.702,77.177 185.285,77.611 184.582 C 78.045 183.880,78.400 183.089,78.400 182.825 C 78.400 182.560,78.965 181.524,79.655 180.521 C 80.345 179.518,81.138 177.937,81.418 177.008 C 81.697 176.079,82.483 174.333,83.163 173.127 C 83.843 171.922,84.400 170.708,84.400 170.429 C 84.400 170.151,84.805 169.358,85.300 168.667 C 86.581 166.878,87.643 164.392,87.337 163.898 C 87.186 163.654,87.267 163.594,87.530 163.757 C 88.618 164.429,90.725 162.004,94.938 155.229 C 96.439 152.814,97.289 151.911,100.443 149.379 C 101.897 148.212,103.408 146.929,103.803 146.528 C 104.965 145.347,108.492 142.873,109.965 142.205 C 110.715 141.865,112.267 140.786,113.412 139.807 C 114.558 138.828,116.824 137.421,118.448 136.680 C 120.071 135.939,121.647 135.032,121.949 134.666 C 122.251 134.300,122.673 134.000,122.886 134.000 C 123.460 134.000,129.550 130.883,131.400 129.642 C 133.779 128.047,137.838 126.505,141.000 125.994 C 142.703 125.720,144.620 125.074,145.893 124.346 C 147.536 123.407,148.785 123.062,151.693 122.747 C 153.732 122.526,156.930 122.013,158.800 121.607 C 163.966 120.484,179.316 120.477,183.573 121.595 M160.000 158.009 C 159.010 158.183,157.005 158.889,155.545 159.579 C 154.085 160.269,151.475 161.117,149.745 161.463 C 145.720 162.269,140.901 164.730,136.200 168.378 C 134.220 169.915,131.700 171.787,130.600 172.537 C 128.542 173.942,126.527 176.160,123.820 180.000 C 122.967 181.210,121.312 183.192,120.143 184.403 C 118.751 185.846,117.690 187.435,117.071 189.003 C 116.552 190.322,115.669 192.070,115.109 192.888 C 105.790 206.522,106.126 237.764,115.765 253.770 C 116.528 255.038,117.269 256.605,117.412 257.252 C 117.554 257.900,118.608 259.458,119.755 260.715 C 120.901 261.972,122.245 263.532,122.741 264.181 C 124.296 266.217,129.017 271.022,130.643 272.222 C 131.499 272.854,132.932 274.026,133.827 274.827 C 134.722 275.627,136.501 276.984,137.780 277.841 C 139.059 278.699,140.817 279.881,141.686 280.470 C 145.736 283.213,154.588 286.263,160.600 286.987 C 163.020 287.279,166.568 287.751,168.485 288.036 C 172.033 288.565,174.954 288.342,185.400 286.742 C 190.320 285.988,199.648 282.466,202.571 280.258 C 203.247 279.748,205.253 278.577,207.029 277.657 C 208.805 276.737,211.409 274.953,212.815 273.692 C 224.286 263.407,231.574 252.686,232.973 244.039 C 233.386 241.482,233.874 240.012,234.808 238.510 C 237.500 234.180,237.600 215.870,234.967 209.476 C 234.407 208.114,233.615 205.280,233.208 203.178 C 232.280 198.389,228.173 189.829,225.426 186.963 C 223.277 184.720,222.604 184.923,219.193 188.846 C 217.987 190.233,214.287 194.075,210.970 197.384 C 203.190 205.147,202.693 206.226,204.892 210.569 C 205.382 211.537,205.814 213.526,206.022 215.769 C 206.206 217.766,206.463 219.850,206.592 220.400 C 206.844 221.468,206.197 229.564,205.571 233.185 C 205.301 234.743,204.850 235.723,203.996 236.604 C 203.338 237.283,202.800 237.990,202.800 238.176 C 202.800 238.773,199.535 243.765,198.450 244.827 C 197.872 245.392,196.732 246.678,195.915 247.686 C 194.751 249.121,193.541 249.947,190.315 251.510 C 186.433 253.390,185.151 253.824,178.800 255.404 C 172.717 256.918,172.911 256.899,169.888 256.247 C 163.550 254.879,156.727 252.897,155.674 252.118 C 155.062 251.665,153.625 250.821,152.480 250.241 C 151.336 249.661,150.400 249.043,150.400 248.867 C 150.400 248.691,149.233 247.251,147.806 245.667 C 146.380 244.083,144.886 242.115,144.487 241.294 C 144.087 240.472,143.286 238.990,142.706 238.000 C 142.125 237.010,141.297 234.940,140.865 233.400 C 140.432 231.860,139.722 229.413,139.286 227.963 C 138.074 223.936,137.886 221.690,138.567 219.400 C 139.985 214.634,142.012 209.105,142.711 208.094 C 143.127 207.492,143.783 206.193,144.168 205.206 C 146.462 199.332,156.609 192.017,164.600 190.477 C 173.115 188.835,180.244 189.103,184.800 191.236 C 188.714 193.067,192.442 192.540,193.979 189.936 C 194.283 189.421,196.257 187.380,198.366 185.400 C 200.475 183.420,202.892 181.003,203.737 180.030 C 204.582 179.056,205.948 177.771,206.772 177.174 C 209.513 175.188,210.700 171.397,209.183 169.469 C 207.554 167.398,196.375 161.866,192.600 161.262 C 191.060 161.016,188.360 160.355,186.600 159.793 C 180.326 157.790,166.531 156.865,160.000 158.009 M175.805 167.374 C 178.448 167.685,181.598 168.294,182.805 168.727 C 184.012 169.159,186.613 169.725,188.584 169.983 C 190.614 170.250,193.091 170.876,194.296 171.427 C 195.466 171.962,196.506 172.400,196.607 172.400 C 198.284 172.400,198.636 174.424,197.200 175.800 C 195.917 177.029,195.533 178.064,196.700 177.149 C 197.333 176.652,197.348 176.666,196.855 177.296 C 196.555 177.678,196.143 177.888,195.939 177.762 C 195.735 177.636,194.295 178.734,192.738 180.203 C 189.489 183.268,188.627 183.384,185.481 181.179 C 181.708 178.534,169.413 178.365,163.800 180.880 C 162.040 181.669,159.700 182.436,158.600 182.584 C 153.155 183.321,143.426 190.335,141.101 195.200 C 140.628 196.190,140.163 197.160,140.069 197.356 C 139.974 197.551,140.127 197.568,140.410 197.394 C 140.749 197.184,140.825 197.235,140.634 197.545 C 140.475 197.802,140.192 197.918,140.004 197.803 C 139.527 197.508,137.928 199.636,138.165 200.252 C 138.280 200.552,138.142 200.676,137.827 200.555 C 137.114 200.281,135.443 203.013,135.782 203.898 C 135.925 204.271,135.917 204.451,135.765 204.298 C 135.476 204.009,133.775 206.522,132.852 208.600 C 130.406 214.110,131.255 237.064,134.026 240.306 C 134.352 240.688,134.974 241.926,135.409 243.058 C 136.233 245.203,139.770 249.389,140.420 248.988 C 140.624 248.862,140.697 249.003,140.582 249.301 C 140.271 250.114,142.724 253.315,143.447 253.037 C 143.774 252.912,143.934 252.982,143.804 253.194 C 142.640 255.078,156.606 263.606,162.585 264.663 C 169.095 265.813,183.548 265.323,186.361 263.856 C 186.933 263.558,188.390 262.829,189.600 262.236 C 190.810 261.642,192.160 260.952,192.600 260.700 C 193.040 260.449,194.246 259.776,195.280 259.204 C 198.206 257.586,202.899 253.223,202.667 252.336 C 202.561 251.931,202.630 251.695,202.820 251.812 C 203.010 251.930,203.482 251.525,203.871 250.913 C 204.259 250.301,205.411 248.810,206.431 247.600 C 208.703 244.905,210.602 241.450,210.183 240.773 C 209.990 240.460,210.041 240.378,210.321 240.551 C 210.862 240.886,211.827 239.126,212.204 237.121 C 212.354 236.322,212.819 235.301,213.239 234.850 C 216.050 231.833,215.895 215.203,213.026 212.028 C 211.178 209.982,211.863 208.533,217.127 203.344 C 221.679 198.857,224.495 197.043,223.703 199.107 C 223.441 199.792,224.403 202.045,224.842 201.774 C 225.034 201.656,225.086 201.831,224.958 202.165 C 224.830 202.499,225.114 203.317,225.588 203.984 C 226.288 204.967,226.520 206.099,226.815 209.985 C 227.211 215.207,227.383 216.241,228.234 218.508 C 228.961 220.447,228.957 224.030,228.223 226.848 C 227.905 228.066,227.531 230.489,227.390 232.232 C 226.981 237.308,226.461 239.731,225.245 242.245 C 224.618 243.540,223.968 245.228,223.800 245.996 C 223.632 246.764,223.090 247.934,222.597 248.596 C 222.103 249.258,221.494 250.430,221.243 251.200 C 220.679 252.932,219.335 254.673,216.084 257.887 C 214.700 259.255,213.379 260.916,213.148 261.577 C 212.908 262.265,212.104 263.155,211.265 263.660 C 210.459 264.145,208.952 265.320,207.916 266.272 C 206.879 267.224,205.529 268.220,204.916 268.484 C 204.302 268.749,202.900 269.515,201.800 270.187 C 197.157 273.021,191.362 275.518,187.400 276.392 C 185.200 276.877,182.320 277.641,181.000 278.090 C 177.458 279.294,165.094 279.286,162.400 278.078 C 161.410 277.634,158.890 276.876,156.800 276.392 C 149.735 274.758,147.028 273.564,143.000 270.302 C 142.780 270.124,141.223 269.038,139.540 267.889 C 134.626 264.535,132.141 262.524,131.169 261.116 C 130.670 260.392,129.257 258.701,128.030 257.358 C 125.040 254.085,123.406 251.730,122.786 249.800 C 122.504 248.920,121.672 247.030,120.938 245.600 C 120.204 244.170,119.603 242.719,119.602 242.376 C 119.601 242.034,119.336 241.404,119.013 240.976 C 118.690 240.549,118.420 239.970,118.413 239.689 C 118.406 239.408,117.761 237.885,116.980 236.304 C 115.571 233.454,115.563 233.406,115.916 230.216 C 116.113 228.447,116.221 223.080,116.158 218.290 C 116.086 212.871,116.186 209.668,116.422 209.814 C 116.894 210.105,117.709 208.062,117.421 207.310 C 117.304 207.007,117.378 206.863,117.585 206.990 C 118.066 207.288,118.454 206.520,119.777 202.654 C 120.370 200.924,121.169 199.171,121.553 198.759 C 121.937 198.346,122.554 197.047,122.925 195.872 C 123.545 193.905,127.183 188.509,129.771 185.718 C 130.319 185.127,130.976 184.141,131.230 183.527 C 131.484 182.914,132.526 181.860,133.546 181.186 C 134.566 180.511,136.584 179.114,138.031 178.080 C 143.595 174.105,145.434 172.902,146.400 172.607 C 146.950 172.439,147.580 172.168,147.800 172.004 C 148.435 171.531,151.968 170.518,154.787 170.000 C 156.209 169.739,158.197 169.108,159.204 168.598 C 160.854 167.762,163.923 167.277,170.200 166.860 C 170.640 166.831,173.162 167.062,175.805 167.374 M256.683 202.495 C 256.587 202.993,256.505 202.680,256.501 201.800 C 256.496 200.920,256.575 200.513,256.675 200.895 C 256.775 201.278,256.779 201.998,256.683 202.495 M167.600 204.753 C 163.252 206.156,160.541 208.507,157.600 213.425 L 156.200 215.767 156.081 222.161 L 155.963 228.556 157.573 231.641 C 163.773 243.522,180.076 244.595,187.352 233.600 C 191.625 227.144,192.142 220.400,188.364 220.400 C 187.608 220.400,187.120 220.838,183.081 225.139 C 176.338 232.320,167.898 232.320,166.076 225.139 C 165.139 221.450,166.164 219.701,174.100 211.436 C 179.274 206.048,175.527 202.195,167.600 204.753 M306.287 212.300 C 306.195 212.905,306.120 212.410,306.120 211.200 C 306.120 209.990,306.195 209.495,306.287 210.100 C 306.378 210.705,306.378 211.695,306.287 212.300 M115.490 222.093 C 115.401 222.812,115.326 222.320,115.324 221.000 C 115.322 219.680,115.395 219.092,115.486 219.693 C 115.577 220.294,115.579 221.374,115.490 222.093 M277.091 223.100 C 277.005 223.925,276.934 223.250,276.934 221.600 C 276.934 219.950,277.005 219.275,277.091 220.100 C 277.178 220.925,277.178 222.275,277.091 223.100 M131.893 224.889 C 131.809 225.830,131.739 225.160,131.737 223.400 C 131.736 221.640,131.805 220.870,131.891 221.689 C 131.977 222.509,131.978 223.949,131.893 224.889 M306.276 235.500 C 306.175 235.885,306.093 235.570,306.093 234.800 C 306.093 234.030,306.175 233.715,306.276 234.100 C 306.376 234.485,306.376 235.115,306.276 235.500 M273.887 244.295 C 273.795 244.903,273.717 244.500,273.714 243.400 C 273.711 242.300,273.787 241.803,273.882 242.295 C 273.977 242.786,273.979 243.686,273.887 244.295 " stroke="none" fill="#9cbfe2" fill-rule="evenodd"></path></g></svg>