<svg xmlns="http://www.w3.org/2000/svg" version="1.1" xmlns:xlink="http://www.w3.org/1999/xlink" xmlns:svgjs="http://svgjs.dev/svgjs" viewBox="0 0 800 800"><defs><linearGradient x1="50%" y1="0%" x2="50%" y2="100%" id="ssspill-grad"><stop stop-color="hsl(205, 69%, 60%)" stop-opacity="1" offset="45%"></stop><stop stop-color="hsl(205, 69%, 80%)" stop-opacity="1" offset="100%"></stop></linearGradient><filter id="ssspot-filter" x="-20%" y="-20%" width="140%" height="140%" filterUnits="objectBoundingBox" primitiveUnits="userSpaceOnUse" color-interpolation-filters="sRGB">
	<feTurbulence type="turbulence" baseFrequency="0.022 0.218" numOctaves="2" seed="89" stitchTiles="stitch" x="0%" y="0%" width="100%" height="100%" result="turbulence"></feTurbulence>
	<feGaussianBlur stdDeviation="0 3" x="0%" y="0%" width="100%" height="100%" in="turbulence" edgeMode="duplicate" result="blur"></feGaussianBlur>
	<feDisplacementMap in="SourceGraphic" in2="blur" scale="32" xChannelSelector="R" yChannelSelector="B" x="0%" y="0%" width="100%" height="100%" result="displacementMap"></feDisplacementMap>
</filter></defs><rect width="100%" height="100%" fill="hsl(212, 68%, 55%)"></rect><g fill="url(#ssspill-grad)" filter="url(#ssspot-filter)"><circle r="5.680960399564183" cx="435.43142528959777" cy="546.7851585613417" opacity="0.37944018837549764"></circle><circle r="3.953961991483221" cx="35.66034653908821" cy="429.9229312456638" opacity="0.5482300893382311"></circle><circle r="5.103491562060423" cx="575.484260144882" cy="220.0652005863397" opacity="0.13868318949268002"></circle><circle r="6.1193061753144615" cx="469.46348825282655" cy="129.90952304044208" opacity="0.5370093945269285"></circle><circle r="8.52763864349737" cx="782.410365844299" cy="119.12277967512067" opacity="0.13827241111837438"></circle><circle r="6.743624376887979" cx="62.544598318454206" cy="560.7584734723382" opacity="0.3526972224039966"></circle><circle r="7.300868478559233" cx="641.0430298966251" cy="386.6050670686019" opacity="0.3830929882397832"></circle><circle r="4.873150222996998" cx="585.5815088421034" cy="533.6464587920349" opacity="0.994841389053483"></circle><circle r="6.14870935005709" cx="397.81713662674474" cy="15.783472602041147" opacity="0.6203740745095638"></circle><circle r="3.485936859788379" cx="623.564209952606" cy="476.8009132702087" opacity="0.9486892203553554"></circle><circle r="5.276399243427685" cx="755.5700490098008" cy="719.6825583745165" opacity="0.6812585835122746"></circle><circle r="6.217522148307084" cx="515.4838590303134" cy="62.840194056901865" opacity="0.3141500787832039"></circle><circle r="3.951994089731798" cx="276.9143638977299" cy="495.0420956160582" opacity="0.3296036172333724"></circle><circle r="2.925386379811488" cx="767.4484542056186" cy="428.11494135896083" opacity="0.45491281945894724"></circle><circle r="4.981065268747151" cx="225.80946443178186" cy="56.25348410782787" opacity="0.3939421803756352"></circle><circle r="5.6160474707704875" cx="15.92918256962397" cy="371.39859737959625" opacity="0.8993375395586723"></circle><circle r="3.255955310147247" cx="302.3865238657965" cy="11.76579949053014" opacity="0.6246104444278991"></circle><circle r="6.6819935569430005" cx="227.3308568648103" cy="428.5058093610602" opacity="0.7266522023979021"></circle><circle r="3.5302065839554544" cx="27.62817932467957" cy="51.016443210235835" opacity="0.8796861817421255"></circle><circle r="9.381277853730829" cx="539.3383701078739" cy="596.1382258329468" opacity="0.9865679427384787"></circle><circle r="6.563681904987623" cx="515.2591976743705" cy="732.4007188354069" opacity="0.2624607413058283"></circle><circle r="4.010308088934335" cx="64.39536807268487" cy="320.3942079730433" opacity="0.4497363468709803"></circle><circle r="7.96018131457617" cx="694.4221804082825" cy="338.72590964524454" opacity="0.8390626325506155"></circle><circle r="3.9187057416706574" cx="487.1808487330598" cy="407.7260505128026" opacity="0.18991098321861505"></circle><circle r="4.330933143402786" cx="74.18348192914992" cy="683.5044967829195" opacity="0.9305338788568157"></circle><circle r="4.245383621077406" cx="577.8642747832849" cy="62.56950727217014" opacity="0.12348307057567284"></circle><circle r="5.366832695356757" cx="97.55395890309904" cy="382.80639332961863" opacity="0.8665977812646687"></circle><circle r="6.199036623695239" cx="648.409538729483" cy="102.46837298629603" opacity="0.4223393215071779"></circle><circle r="5.680581020336218" cx="506.3751766979786" cy="329.57306431055395" opacity="0.5436387539685642"></circle><circle r="5.070574330786754" cx="140.88192240858416" cy="751.9466751130863" opacity="0.5173051972022236"></circle><circle r="7.2758774755590645" cx="290.58471339208563" cy="749.1405097388839" opacity="0.7388920482957172"></circle><circle r="3.4343542429271996" cx="30.938995512461148" cy="644.5831338292264" opacity="0.834477596519975"></circle><circle r="3.507545377333015" cx="726.7547848424214" cy="195.307927382929" opacity="0.666277567997151"></circle><circle r="4.209344161233361" cx="411.90209855879044" cy="459.34556663768234" opacity="0.48746306854756827"></circle><circle r="5.842754375126921" cx="748.5109367530596" cy="443.0248712569751" opacity="0.9366899438462518"></circle><circle r="5.639071104661212" cx="268.80254265430466" cy="171.25620880764862" opacity="0.6431168924082806"></circle><circle r="6.879611525005684" cx="643.0995293170099" cy="747.6769208120461" opacity="0.8865614960862623"></circle><circle r="8.34882383310218" cx="475.4724229840433" cy="768.4005770168991" opacity="0.29434725258142846"></circle><circle r="6.751381225552075" cx="171.40093988908637" cy="294.0757919634005" opacity="0.4286422122753871"></circle><circle r="4.705725248086477" cx="276.8870653709289" cy="352.3486420887948" opacity="0.5424039403641758"></circle><circle r="5.987212724713291" cx="354.9707557243137" cy="474.9146586466691" opacity="0.7207117534640467"></circle><circle r="5.463661702275907" cx="97.94259635245844" cy="150.7216549836323" opacity="0.9576926648426886"></circle><circle r="4.453581176929225" cx="530.0649210073783" cy="269.2465749664824" opacity="0.13952946858076892"></circle><circle r="6.627549744787089" cx="304.10956982682376" cy="80.19731265604179" opacity="0.8368178375485917"></circle><circle r="6.879410605279103" cx="371.7422652969495" cy="348.1342344386388" opacity="0.8495535795030934"></circle><circle r="5.214509984093045" cx="445.4341994492208" cy="344.9326867297312" opacity="0.126277089611117"></circle><circle r="4.359487698789647" cx="677.0426045165348" cy="434.73122870843173" opacity="0.6163599544027957"></circle><circle r="4.857160330095514" cx="346.48993231661296" cy="105.80769257842267" opacity="0.11166850245911973"></circle><circle r="3.2507476211672977" cx="326.09104199656605" cy="521.8563232152626" opacity="0.8405736662970278"></circle><circle r="3.0844404488242745" cx="10.90430214934049" cy="451.127475561851" opacity="0.56571289984894"></circle><circle r="3.621893718855187" cx="792.4015700199816" cy="672.397557684942" opacity="0.7827240704777011"></circle><circle r="5.391342874688613" cx="611.676116628015" cy="418.61663676188505" opacity="0.6976619883601596"></circle><circle r="4.188359144308762" cx="149.87781540422972" cy="230.14289117171234" opacity="0.11819382994085759"></circle><circle r="5.872750408027387" cx="162.45080715000617" cy="85.87157150514906" opacity="0.17245160604724358"></circle><circle r="4.040948576233136" cx="94.84427981289835" cy="298.8844706382625" opacity="0.2168790772508709"></circle><circle r="5.925725467920557" cx="285.37034847669554" cy="652.2806408633428" opacity="0.7396438926273761"></circle><circle r="8.673537633849408" cx="461.65178387919485" cy="635.5569891168144" opacity="0.18328786889953558"></circle><circle r="4.703589831810545" cx="376.32713500526086" cy="625.6645374232877" opacity="0.45305233134835865"></circle><circle r="6.22711672920868" cx="716.8952283431702" cy="503.2143405432782" opacity="0.6540693191187837"></circle><circle r="3.967024342890263" cx="786.8638004159237" cy="37.68984490432049" opacity="0.5663436606240125"></circle><circle r="6.015451286249386" cx="353.869844254086" cy="426.89946600653457" opacity="0.9022345744653646"></circle><circle r="8.82022109435296" cx="498.5145211891106" cy="162.44813271139955" opacity="0.24639029440894478"></circle><circle r="4.551522762915199" cx="477.4991697820596" cy="703.9022551892634" opacity="0.3727529883976559"></circle><circle r="5.743267180558231" cx="585.1443304210022" cy="365.41326569887974" opacity="0.32315304126924427"></circle><circle r="5.789464840745563" cx="391.47379706973777" cy="286.75313664703805" opacity="0.8853426085461452"></circle><circle r="3.993981448895979" cx="15.706749194709788" cy="475.7390413696921" opacity="0.738254992217749"></circle><circle r="6.2521287519909805" cx="536.3326050894848" cy="717.9223378461887" opacity="0.4872607906323214"></circle><circle r="7.41559940631117" cx="695.7850313672725" cy="659.0192877937473" opacity="0.8134625104897915"></circle><circle r="4.309239515836118" cx="336.9460727199862" cy="25.56159960492496" opacity="0.4201355942036953"></circle><circle r="7.405915639182172" cx="136.93193091985967" cy="526.5477768735987" opacity="0.3709746502341531"></circle><circle r="10.019424287281428" cx="115.81546149949392" cy="50.425255047862635" opacity="0.8016300534625266"></circle><circle r="3.398800656106515" cx="783.5939547285751" cy="194.97687428997858" opacity="0.7272090897326304"></circle><circle r="8.741976137547296" cx="27.869634574409904" cy="213.40668989882468" opacity="0.6858351838179525"></circle><circle r="6.376870157201461" cx="480.63157258213056" cy="350.129456836498" opacity="0.1519493857149203"></circle><circle r="5.371153601685391" cx="200.43767728923757" cy="36.94296296460505" opacity="0.9610775262302808"></circle><circle r="4.851123913300553" cx="435.88780203875484" cy="372.30828744840994" opacity="0.4763223056299646"></circle><circle r="4.508715996610791" cx="271.1335184463312" cy="48.71262032552856" opacity="0.6625790926937773"></circle><circle r="6.436324457905377" cx="436.31104265427695" cy="16.011040364610157" opacity="0.4592885018216767"></circle><circle r="3.8282835848191334" cx="333.6859073328068" cy="729.8750014023711" opacity="0.5246542212279658"></circle><circle r="4.444846210221067" cx="695.6785356288475" cy="50.63278532682229" opacity="0.5116591897443132"></circle><circle r="4.600001650010474" cx="552.3832846547397" cy="11.629541034485289" opacity="0.4795057177419738"></circle><circle r="7.313676013740306" cx="308.5239773316269" cy="718.8886269002599" opacity="0.12586331533622092"></circle><circle r="4.618909239606648" cx="766.1701375108318" cy="335.96483925981494" opacity="0.4659115605835098"></circle><circle r="4.319037152594538" cx="431.2410516016362" cy="783.0922540686995" opacity="0.7599959054170714"></circle><circle r="6.146662178699167" cx="678.3102807509869" cy="628.2742419549618" opacity="0.1104533479467704"></circle><circle r="5.819116330384724" cx="490.6127848537642" cy="516.6306121163947" opacity="0.2554736944887297"></circle><circle r="4.530629904827102" cx="163.1276676808911" cy="394.4386292051866" opacity="0.9725405238755525"></circle><circle r="4.6146749138384955" cx="630.2704834970865" cy="645.6315299045042" opacity="0.8234452494611991"></circle><circle r="6.60200334569225" cx="200.95450705720071" cy="247.87880109921358" opacity="0.5896711248178922"></circle><circle r="6.5884116998295275" cx="690.4202972572408" cy="783.8587464530424" opacity="0.3425719500526811"></circle><circle r="5.347307559101187" cx="535.4499094031854" cy="221.58491573008985" opacity="0.5746836949349945"></circle><circle r="6.833533868758934" cx="502.9794993854761" cy="462.28333601807856" opacity="0.12619798024180387"></circle><circle r="7.07098269696959" cx="411.27104982811176" cy="329.3711681884679" opacity="0.7276543731022678"></circle><circle r="8.492617422845518" cx="298.21395361437544" cy="163.27694421207565" opacity="0.13493736603956988"></circle><circle r="3.7368607246815317" cx="788.5304231480053" cy="236.4253474388618" opacity="0.8463154778578073"></circle><circle r="5.611994659376416" cx="146.33634574337833" cy="20.587644765915883" opacity="0.1524354015205121"></circle><circle r="4.62960043772061" cx="304.8009732372562" cy="478.03126432012357" opacity="0.11941570888750465"></circle><circle r="6.686228987458292" cx="522.1927909915562" cy="388.71046979450085" opacity="0.3935192542072241"></circle><circle r="4.182623299564407" cx="671.014704883422" cy="499.3846888248646" opacity="0.18484879046639663"></circle><circle r="5.459430296611871" cx="163.7336160473911" cy="171.032969787498" opacity="0.13263610420878047"></circle><circle r="4.955757901701514" cx="618.5890341378199" cy="92.10373823234436" opacity="0.599354898154501"></circle><circle r="8.053173820695966" cx="184.78066102920718" cy="512.7756112500713" opacity="0.17086890265447177"></circle><circle r="8.699580295704632" cx="500.89546911063263" cy="249.1708863025876" opacity="0.9985844383192269"></circle><circle r="6.397135588118323" cx="744.9647677261221" cy="555.3281130414856" opacity="0.2459836469070662"></circle><circle r="5.4643531319596255" cx="573.8166711484513" cy="667.8514072242484" opacity="0.9308452990477106"></circle><circle r="4.670605086760889" cx="314.2758254161619" cy="677.5915964162523" opacity="0.6666613068509641"></circle><circle r="3.586391319492538" cx="42.48567154783565" cy="492.0147064459819" opacity="0.955935846042747"></circle><circle r="8.40412621235076" cx="191.15964815860855" cy="596.8751803209589" opacity="0.3671607921966096"></circle><circle r="4.618693393402051" cx="399.5779803483175" cy="722.1523896037123" opacity="0.1947124265870456"></circle><circle r="6.23389922812053" cx="39.08381955143892" cy="335.8021126218692" opacity="0.4181771941500825"></circle><circle r="6.3978551313236816" cx="503.0799403763399" cy="431.4254313512016" opacity="0.7232626977747404"></circle><circle r="5.945293547499601" cx="128.8681239266697" cy="618.5524088780948" opacity="0.6725169081833395"></circle><circle r="7.421934612964975" cx="389.1761688029374" cy="495.83742571276736" opacity="0.17182520288922143"></circle><circle r="6.447496944700683" cx="734.6864639734823" cy="68.1851228891631" opacity="0.7822388641270642"></circle><circle r="4.811658954789211" cx="578.9895326539876" cy="478.28154001348537" opacity="0.250852822693815"></circle><circle r="4.316899120675401" cx="414.60549971307887" cy="188.8419620674807" opacity="0.8643706214090786"></circle><circle r="6.1092285745500226" cx="508.0839052475604" cy="777.7217557052801" opacity="0.47730384952739213"></circle><circle r="4.702949729599663" cx="509.16737898773886" cy="354.4910674460877" opacity="0.14644289409877442"></circle><circle r="5.552658994681582" cx="385.79470775320596" cy="110.2356975546143" opacity="0.34257963581449496"></circle><circle r="6.989403370323182" cx="197.63172287203585" cy="558.8834820621062" opacity="0.11908795595778852"></circle><circle r="6.892178650560472" cx="329.10316895018184" cy="785.6585237860605" opacity="0.37481900423053693"></circle><circle r="6.553233012890238" cx="464.74566965782526" cy="495.7811676579013" opacity="0.3465233687494188"></circle><circle r="4.6025001350783254" cx="378.7294759231378" cy="737.3343696626803" opacity="0.2596776664652464"></circle><circle r="6.068877995937241" cx="295.3441645327771" cy="419.3918156543776" opacity="0.9236997231737765"></circle><circle r="3.8846100533341836" cx="20.29322698982646" cy="399.88697626146336" opacity="0.2955683822800965"></circle><circle r="8.711279940300239" cx="599.0011750855643" cy="163.07857677378033" opacity="0.5845490395956723"></circle><circle r="4.353471491484209" cx="581.7937965801356" cy="629.1652786223107" opacity="0.8415455493839806"></circle><circle r="5.122466470313704" cx="149.39240262386218" cy="500.27432323904316" opacity="0.578349624810207"></circle><circle r="5.729666972077795" cx="201.1452251239186" cy="786.1648017228295" opacity="0.17457203585568748"></circle><circle r="4.727534652897555" cx="677.0935736239277" cy="464.2632718027333" opacity="0.9188603023746136"></circle><circle r="4.01170560897821" cx="723.3106481221982" cy="447.99102221361846" opacity="0.60281631051299"></circle><circle r="5.77837711787382" cx="787.6621580702928" cy="489.504236120239" opacity="0.7614548005976248"></circle><circle r="3.843242783602988" cx="622.5021946027349" cy="587.6674961307783" opacity="0.6759113589854842"></circle><circle r="4.722169632381513" cx="29.91374178125701" cy="78.05242546878273" opacity="0.452093433531749"></circle><circle r="6.1211742119043535" cx="551.5482567492201" cy="42.82306302012323" opacity="0.7850195957932432"></circle><circle r="6.603252494692976" cx="77.74217976969936" cy="260.73710126049974" opacity="0.45239735465639075"></circle><circle r="5.54675609632144" cx="457.5487440349632" cy="322.3652221043298" opacity="0.6544542920598061"></circle><circle r="6.93713380755294" cx="28.92645825565277" cy="254.93149705610787" opacity="0.8988851996209323"></circle><circle r="4.560578228823589" cx="126.57337038293771" cy="458.69730735309076" opacity="0.44810812685837786"></circle><circle r="3.345851983296987" cx="757.9205249670249" cy="151.97565590295025" opacity="0.25948203391669344"></circle><circle r="3.708433557441828" cx="233.57077501930237" cy="125.8844301740924" opacity="0.14710628839127862"></circle><circle r="7.616288118256458" cx="623.3939300637361" cy="553.8237149038453" opacity="0.8144615267035973"></circle><circle r="4.381398695176492" cx="469.71750172491085" cy="176.97162572317603" opacity="0.15140296272654682"></circle><circle r="5.100531842197223" cx="330.86522724669476" cy="187.93890298056306" opacity="0.6533352415334406"></circle><circle r="3.4440386607869544" cx="740.2283815207408" cy="347.18344638933513" opacity="0.6625602931058823"></circle><circle r="5.809299226156542" cx="739.6572088816864" cy="405.4653462302927" opacity="0.8325144116591593"></circle><circle r="5.698442796064317" cx="154.68236256015413" cy="476.3382801149127" opacity="0.22423376249287813"></circle><circle r="6.949358458683726" cx="167.2861335459904" cy="676.5728209668235" opacity="0.2786443804732988"></circle><circle r="6.951221858241984" cx="311.63024941617795" cy="595.8460752806606" opacity="0.9176426024745512"></circle><circle r="4.957612882611941" cx="591.2372573472678" cy="89.6606393800884" opacity="0.2655569230406628"></circle><circle r="7.1577758685820845" cx="254.1103592656099" cy="611.2906237656586" opacity="0.5317923108377046"></circle><circle r="2.7554343651730075" cx="354.9746037755998" cy="739.4091897037866" opacity="0.7351165086644563"></circle><circle r="6.556834526099373" cx="367.7671260520386" cy="53.33206811572299" opacity="0.8365912023967488"></circle><circle r="2.956005876820772" cx="9.092478361201286" cy="627.040447224455" opacity="0.829734251647311"></circle><circle r="5.475293044543729" cx="783.0722789128447" cy="549.0309246647669" opacity="0.14903201939203273"></circle><circle r="5.813696445460369" cx="706.3645863818887" cy="542.1584243705876" opacity="0.13846549725458382"></circle><circle r="5.232465354998193" cx="291.007714179217" cy="622.3950412658805" opacity="0.5854641544584474"></circle><circle r="3.626715029000329" cx="455.10432146379634" cy="578.2224147993059" opacity="0.483597336756061"></circle><circle r="3.2940688699840286" cx="765.6671292670802" cy="174.14904511605653" opacity="0.4259282012924255"></circle><circle r="7.347540252014852" cx="652.692623387085" cy="344.86147793850176" opacity="0.36114574914739317"></circle><circle r="3.606172478208228" cx="774.618060178496" cy="571.8738437836736" opacity="0.7146779077789944"></circle><circle r="5.927834226243642" cx="52.504524615759294" cy="734.9232351289" opacity="0.9877928109144325"></circle><circle r="5.83310657984347" cx="44.261764235660344" cy="529.0133085702028" opacity="0.18562909365347466"></circle><circle r="5.925502581550932" cx="383.44798964617445" cy="590.1789742639979" opacity="0.17195338538378724"></circle><circle r="4.5549759445239975" cx="365.29546840618457" cy="387.0655582329729" opacity="0.35950525854242"></circle><circle r="9.004939615865005" cx="727.655188778033" cy="633.2510175206313" opacity="0.17264286785142346"></circle><circle r="5.2905266373073285" cx="252.12641448777626" cy="665.5948251152527" opacity="0.8703966182293728"></circle><circle r="9.656292567985123" cx="652.5038459561506" cy="219.23714639552674" opacity="0.8249862101764248"></circle><circle r="4.986020810420954" cx="620.4690431166864" cy="767.3633805137271" opacity="0.6497280507094476"></circle><circle r="6.192312888326002" cx="402.68066506687404" cy="534.7221871103611" opacity="0.8368775154354434"></circle><circle r="7.638872681761484" cx="255.92030672788445" cy="201.7033047290996" opacity="0.8472831178423528"></circle><circle r="4.530107013250631" cx="786.0679856822021" cy="720.8902338836284" opacity="0.4651989235102052"></circle><circle r="5.0018199697839645" cx="521.0505980238812" cy="508.21742481312197" opacity="0.8117929686276792"></circle><circle r="6.597968889625225" cx="562.5817041883072" cy="178.52196115709663" opacity="0.5884336177883142"></circle><circle r="6.680247921191791" cx="188.63099779644955" cy="471.58843870645927" opacity="0.5117878071870835"></circle><circle r="5.427498975583209" cx="142.03269345951915" cy="358.49494647882693" opacity="0.7968625249898798"></circle><circle r="6.0622561006568905" cx="781.5486501227575" cy="306.7059540614618" opacity="0.941634496912647"></circle><circle r="5.690873174625509" cx="102.98318486316242" cy="344.10329704590697" opacity="0.8326269341852415"></circle><circle r="3.520609919294756" cx="324.6175073325282" cy="144.58466791301166" opacity="0.6929617338798717"></circle><circle r="6.122751941826547" cx="730.1062222575533" cy="106.06605500745954" opacity="0.17740330631315065"></circle><circle r="3.4709266692085743" cx="25.812048322656" cy="610.164562470156" opacity="0.74646290337025"></circle><circle r="5.565553317946247" cx="13.839997691405692" cy="427.43141317653124" opacity="0.3177838764174651"></circle><circle r="3.3850526212531085" cx="490.54100612407734" cy="482.80802630083895" opacity="0.6845294936855536"></circle><circle r="4.277789806107258" cx="259.32074733063575" cy="395.0792467727759" opacity="0.15364809550307806"></circle><circle r="5.520870181155363" cx="344.06152014816337" cy="693.3747131914829" opacity="0.8913468424744817"></circle><circle r="9.417071594692981" cx="405.4970640400159" cy="55.540794177989056" opacity="0.2533000012435524"></circle><circle r="5.743403341184171" cx="166.09670186744836" cy="114.0470554411622" opacity="0.4483965054152824"></circle><circle r="5.534179111658988" cx="154.36257846118974" cy="326.8413928449038" opacity="0.9943593515133642"></circle><circle r="4.2949736688222755" cx="427.51851358371596" cy="627.2408761282477" opacity="0.21583007550437866"></circle><circle r="4.9143574771076555" cx="525.5990547657074" cy="183.45304038141242" opacity="0.3525189780729616"></circle><circle r="6.715702266048449" cx="380.01092020006064" cy="452.10161949997723" opacity="0.8308296522836106"></circle><circle r="4.264475495472362" cx="229.7964820168865" cy="218.5962193744581" opacity="0.19432740519215225"></circle><circle r="6.007040753400361" cx="610.8922939112463" cy="51.74434793074108" opacity="0.28379960470038035"></circle><circle r="6.838151057452119" cx="634.3862649833267" cy="616.2257343899395" opacity="0.8661506151691506"></circle><circle r="5.419539016282542" cx="737.5018896653112" cy="676.4615886700639" opacity="0.9190596144172447"></circle><circle r="5.594936780779607" cx="301.0112700450588" cy="41.4666635880354" opacity="0.3990119899148141"></circle><circle r="3.931164955598823" cx="770.6057082199627" cy="674.9752175438697" opacity="0.5703784077633703"></circle><circle r="4.228309392311953" cx="432.50845303533674" cy="676.3765856851993" opacity="0.7018372865991999"></circle><circle r="4.818067344420136" cx="178.60370288913748" cy="236.76342676864732" opacity="0.6134071883876153"></circle><circle r="5.596247118431806" cx="313.497946429184" cy="369.04657661810194" opacity="0.6450144199131531"></circle><circle r="3.9155544308337644" cx="769.1308361706862" cy="638.1176546120225" opacity="0.47370667640577646"></circle><circle r="4.657135164416691" cx="223.9836758953094" cy="731.7797606191134" opacity="0.9843645255880945"></circle><circle r="6.9469717111916545" cx="245.32642343449726" cy="151.4408203573009" opacity="0.6262026484284289"></circle><circle r="9.790037133539457" cx="774.6415718000003" cy="772.3430084637512" opacity="0.9457663870043742"></circle><circle r="6.197051563242627" cx="654.3364709982874" cy="457.6601644479976" opacity="0.5165219312434753"></circle><circle r="7.6784804902615775" cx="334.8697835831567" cy="65.93360717806596" opacity="0.48488085304335937"></circle><circle r="3.056010740643447" cx="290.0356025490647" cy="397.35975657424143" opacity="0.6537149328987636"></circle><circle r="6.305112973052631" cx="249.44546328782556" cy="18.001623491176527" opacity="0.12178083942601146"></circle><circle r="6.874560717108612" cx="482.4385967420663" cy="313.1057003819705" opacity="0.43975819782278125"></circle><circle r="7.238945237816798" cx="778.7472752061863" cy="385.18944655829495" opacity="0.43889968764427056"></circle><circle r="4.882732359334842" cx="598.0707868970222" cy="691.9958018949325" opacity="0.26938859032462803"></circle><circle r="3.335431756472526" cx="683.6931125899519" cy="130.1479598129285" opacity="0.1250346484713001"></circle><circle r="7.215808929704711" cx="448.8437003628356" cy="49.36417519672232" opacity="0.8180060109330215"></circle><circle r="7.826099602030582" cx="102.84380335131436" cy="582.0738905429968" opacity="0.31838873855892647"></circle><circle r="7.698617300893215" cx="433.48837398273287" cy="305.4083405823378" opacity="0.6151978832303624"></circle><circle r="7.329701602990779" cx="251.9776411205295" cy="73.74495570308441" opacity="0.6468177274925146"></circle><circle r="7.9161720441163155" cx="611.397934432112" cy="207.6174827337139" opacity="0.7935849148320843"></circle><circle r="4.813168848588212" cx="13.055132543311142" cy="337.317196432812" opacity="0.5896194847030191"></circle><circle r="5.384530312951254" cx="648.2896957470368" cy="663.2067002905386" opacity="0.8790716025820446"></circle><circle r="3.588036551509714" cx="84.0032832214198" cy="479.1827035420012" opacity="0.3766748064271813"></circle><circle r="5.696457797265431" cx="531.5304836494635" cy="450.0561341352415" opacity="0.4035708691780854"></circle><circle r="4.625061413146156" cx="201.92158257628887" cy="124.46450308592324" opacity="0.6379590823794242"></circle><circle r="2.4743753804715034" cx="62.906447055771274" cy="470.8772393806529" opacity="0.2382912225407383"></circle><circle r="5.706334410840711" cx="475.14799483399304" cy="433.20398689700284" opacity="0.8665173371207066"></circle><circle r="5.284696274972795" cx="196.77403141213537" cy="172.87368187693667" opacity="0.39016310273766075"></circle><circle r="4.10043735724468" cx="98.76976464714889" cy="672.9770006848343" opacity="0.6224635364413474"></circle><circle r="4.858727965177303" cx="543.4952550062668" cy="777.0685467132564" opacity="0.5129658390329648"></circle><circle r="4.056293461236039" cx="788.8183667072155" cy="421.93036586751396" opacity="0.3859183664565793"></circle><circle r="6.423147649561025" cx="234.2668022418725" cy="777.1702485877528" opacity="0.48755432357537043"></circle><circle r="7.432826576195918" cx="88.25252525773988" cy="616.3821649658993" opacity="0.21677533054926923"></circle><circle r="4.161481842744678" cx="428.69302348247385" cy="713.5725624614314" opacity="0.24865457862101212"></circle><circle r="8.071525793420856" cx="329.4157248148899" cy="632.4731152895979" opacity="0.6773994817047946"></circle><circle r="6.381412254792389" cx="720.1208088408926" cy="296.93002176925154" opacity="0.2560702719792026"></circle><circle r="6.67752671746244" cx="749.3693771219238" cy="370.11474955344244" opacity="0.848479867388479"></circle><circle r="7.486718147566693" cx="404.7156394639272" cy="249.7730891882277" opacity="0.8590903413738487"></circle><circle r="6.3571468898509185" cx="207.10107675847715" cy="663.9131501720933" opacity="0.6829115896363838"></circle><circle r="3.0544818011484933" cx="789.6002691400543" cy="164.03394100427627" opacity="0.7800334351770197"></circle><circle r="9.979338206703524" cx="377.8182250640779" cy="776.3592409666765" opacity="0.3284302204725127"></circle><circle r="6.331214178236918" cx="701.209603916959" cy="398.4311579105514" opacity="0.5799056548831278"></circle><circle r="5.283478393861916" cx="309.41384958376835" cy="270.33024360232406" opacity="0.15690446790688195"></circle><circle r="4.318438850034643" cx="199.79757962882138" cy="82.73947426164334" opacity="0.3053081143573577"></circle><circle r="6.4971161545156715" cx="130.52951803832656" cy="280.24492129733414" opacity="0.7601962335512173"></circle><circle r="7.097868554607679" cx="366.22811090277764" cy="514.6632892865972" opacity="0.2072018492812"></circle><circle r="5.06122098301142" cx="789.3030654688315" cy="522.5050592466504" opacity="0.8362456307228886"></circle><circle r="7.153250605369542" cx="414.44155479514166" cy="395.990480313374" opacity="0.2731625985362181"></circle><circle r="4.07747080685757" cx="652.0002838816233" cy="66.31776023643123" opacity="0.9705662353005359"></circle><circle r="4.721699681786191" cx="753.1925840920691" cy="227.52823330832973" opacity="0.2173057530036102"></circle><circle r="5.070449484979354" cx="582.4508610446966" cy="599.2705473129527" opacity="0.6826578716449232"></circle><circle r="6.5158629914088895" cx="684.47057595557" cy="266.779947581074" opacity="0.48463629680045806"></circle><circle r="5.893815315682703" cx="457.9202912965874" cy="208.99912278652695" opacity="0.786142272588043"></circle><circle r="5.133536760469421" cx="271.15954525237436" cy="443.7318776182361" opacity="0.6725594274930091"></circle><circle r="5.422992501066643" cx="174.47919988837737" cy="361.25542741173854" opacity="0.8840871464365038"></circle><circle r="5.513003698208889" cx="393.5688561812965" cy="679.6210628785058" opacity="0.157789166906282"></circle><circle r="5.523786487061631" cx="694.7462791409625" cy="304.2719306156054" opacity="0.7557537085609853"></circle><circle r="3.803692622700794" cx="732.1413811346127" cy="474.34962389226837" opacity="0.6541167770793423"></circle><circle r="5.483480912005906" cx="52.487497077319304" cy="761.789418978624" opacity="0.3223634125974837"></circle><circle r="4.810507944521107" cx="329.24155217055375" cy="471.6126469857788" opacity="0.6076999403146184"></circle><circle r="6.004467091122741" cx="303.4510223479736" cy="336.6108863881949" opacity="0.4241051588348427"></circle><circle r="8.509945720423229" cx="449.90577890985395" cy="408.74583435522146" opacity="0.5579111600603033"></circle><circle r="5.838122891078674" cx="694.4758164057689" cy="573.6035497378153" opacity="0.15030053299519447"></circle><circle r="5.840757441207352" cx="534.6355280594971" cy="416.46843199249304" opacity="0.9058641139941278"></circle><circle r="4.59675301944419" cx="343.47464617443785" cy="284.3537944994716" opacity="0.8712984174409695"></circle><circle r="3.2970750820686545" cx="278.291938407971" cy="467.85213813127956" opacity="0.24121559096189177"></circle><circle r="6.961806467017778" cx="148.48084686882865" cy="595.9200303662724" opacity="0.462524062006316"></circle><circle r="5.365522701185354" cx="316.9384380372845" cy="442.58710822458096" opacity="0.5883408170680939"></circle><circle r="4.244308991123846" cx="732.199084750044" cy="325.1572585068707" opacity="0.38440003810046675"></circle><circle r="3.631071120857352" cx="48.780881155109725" cy="670.7101233345336" opacity="0.8802167001503044"></circle><circle r="4.100705041635421" cx="78.66225605595645" cy="648.5009521407582" opacity="0.6607751475136142"></circle><circle r="5.868147505217648" cx="331.0584856375279" cy="227.10457886256938" opacity="0.5944358876346214"></circle><circle r="4.569954031346162" cx="250.51365770158324" cy="513.6352167846367" opacity="0.8898566063643525"></circle><circle r="7.6072045964860395" cx="167.67164201779667" cy="56.25027073865922" opacity="0.5804807743579126"></circle><circle r="6.431225409300888" cx="259.336279741844" cy="292.80761733519097" opacity="0.618050281653524"></circle><circle r="4.221357356078879" cx="367.2171709450085" cy="19.40711985899825" opacity="0.7779540709946934"></circle><circle r="3.364048381976431" cx="759.9650116328769" cy="485.43988082605887" opacity="0.15159517986198764"></circle><circle r="4.455135520066496" cx="548.3860533649628" cy="691.5298203045692" opacity="0.17174965679138393"></circle><circle r="7.236278367425044" cx="82.59808727439793" cy="416.621901555862" opacity="0.7215928077600018"></circle><circle r="5.165888790431366" cx="227.87448911730016" cy="98.35214975903307" opacity="0.5897772736739426"></circle><circle r="10.977814701819128" cx="529.845750879941" cy="130.28501190073075" opacity="0.7933595632740547"></circle><circle r="7.480396222751054" cx="84.14774095165146" cy="518.9584708686672" opacity="0.3640025685207676"></circle><circle r="8.238270752952522" cx="475.3533103129249" cy="280.31471148449515" opacity="0.25717481988720164"></circle><circle r="6.641719075729192" cx="455.6626032302712" cy="734.4035467355184" opacity="0.7065659237573361"></circle><circle r="5.037160368828637" cx="487.42550166371217" cy="728.5740567409016" opacity="0.6173021052877685"></circle><circle r="4.462509840414262" cx="394.0996441862232" cy="219.34524091715036" opacity="0.5274787275525818"></circle><circle r="2.3551237874916975" cx="622.3756809542813" cy="790.8208254768379" opacity="0.2885213246614405"></circle><circle r="6.706268632198118" cx="238.78438917144285" cy="570.9735473013188" opacity="0.48936312544549454"></circle><circle r="5.42843735595846" cx="105.44764157213218" cy="546.0507300561012" opacity="0.8351783271043848"></circle><circle r="5.746837368986118" cx="375.4537094040338" cy="549.6308841575153" opacity="0.7407928598603162"></circle><circle r="5.579027445122318" cx="138.56415096922382" cy="130.19204082301988" opacity="0.22616491709550693"></circle><circle r="10.578050393448502" cx="420.9691176273516" cy="137.18212670104757" opacity="0.6918283627738445"></circle><circle r="6.758329959612788" cx="203.55388796255244" cy="203.79760097942204" opacity="0.315585266515528"></circle><circle r="8.271766501235094" cx="115.32974002339726" cy="245.0956436561648" opacity="0.9290378927945816"></circle><circle r="2.8899965216226193" cx="54.758988878447404" cy="448.8884471530398" opacity="0.5760217808745645"></circle><circle r="4.3447152375678915" cx="563.3526860404858" cy="438.6272257647795" opacity="0.9637400552282744"></circle><circle r="6.822432892064348" cx="54.54011286291634" cy="291.30618557933104" opacity="0.35285876319767506"></circle><circle r="5.153505731116915" cx="115.01179262973325" cy="697.4264922849668" opacity="0.8028483225472286"></circle><circle r="6.18657434042338" cx="554.2189132815531" cy="391.7385723723663" opacity="0.7383067487014583"></circle><circle r="7.0502215766957566" cx="441.2231867966831" cy="171.83507334852962" opacity="0.633883577463992"></circle><circle r="4.940517688677238" cx="521.536868574055" cy="22.185191253610803" opacity="0.8637262216689501"></circle><circle r="6.6618512502919245" cx="709.5333206912809" cy="18.560586116119485" opacity="0.9147521103939725"></circle><circle r="5.187311346456801" cx="668.4737837789626" cy="19.04922460278083" opacity="0.9622166854619588"></circle><circle r="5.4403948226525545" cx="754.2002957778793" cy="293.3895529432508" opacity="0.8510482151300747"></circle><circle r="3.323538978106854" cx="646.7341651445456" cy="490.074666522568" opacity="0.11031642935069153"></circle><circle r="3.641302325769398" cx="148.08705499265912" cy="710.1002426590225" opacity="0.20859165935911622"></circle><circle r="4.713083882047461" cx="602.1604387934576" cy="464.7447132930182" opacity="0.9069028451291623"></circle><circle r="6.367990148664104" cx="48.634597240963636" cy="363.51591951025074" opacity="0.4755474592205058"></circle><circle r="4.063685533772187" cx="558.2115843029926" cy="338.05560001695" opacity="0.9962530698864244"></circle><circle r="3.8235428708555226" cx="558.408613067463" cy="364.8837726206447" opacity="0.1952745995684299"></circle><circle r="8.134900117605346" cx="92.44683232142204" cy="19.76676701154475" opacity="0.5616429849027387"></circle><circle r="4.34804699689276" cx="151.57003967195112" cy="430.347376001968" opacity="0.6854902793100771"></circle><circle r="8.524596743371111" cx="543.567017335103" cy="547.1894647014849" opacity="0.5272331948813797"></circle><circle r="3.255766870478106" cx="590.6036405182524" cy="722.0410014714483" opacity="0.24483372226148697"></circle><circle r="7.623420192351719" cx="326.4303184216758" cy="405.53020976208427" opacity="0.14607326747477734"></circle><circle r="4.512980526669953" cx="633.8332641339159" cy="437.5253150775444" opacity="0.39506952841904464"></circle><circle r="4.5810374778121155" cx="77.83510937277495" cy="786.3409532292386" opacity="0.5459834782911601"></circle><circle r="5.962708975921503" cx="532.3903480186062" cy="358.082346096325" opacity="0.682037054104991"></circle><circle r="5.989429857242674" cx="487.4804098992789" cy="93.17332291801519" opacity="0.5952461554639903"></circle><circle r="4.716466443233937" cx="640.5650246664404" cy="35.63217175062236" opacity="0.8755888134095394"></circle><circle r="6.902040222722137" cx="779.4655279822852" cy="65.18329556166222" opacity="0.26344981600826783"></circle><circle r="4.884624802488855" cx="482.7356291667862" cy="540.3366965537408" opacity="0.4879800427612496"></circle><circle r="3.3181250457863136" cx="789.1427863153983" cy="346.6411042444913" opacity="0.7938902744598563"></circle><circle r="7.016715752961935" cx="370.20139738957664" cy="83.15730800326737" opacity="0.6254317504258758"></circle><circle r="5.989683785049505" cx="667.3916200652508" cy="311.767755588654" opacity="0.3754027834971093"></circle><circle r="6.134058259582067" cx="285.79316369773665" cy="524.4120055042406" opacity="0.38040928365526294"></circle><circle r="4.6519098088902595" cx="599.2673741817331" cy="654.01267577471" opacity="0.4332907280883388"></circle><circle r="5.831333546054994" cx="452.5260903252164" cy="238.28751101146338" opacity="0.2894946548913465"></circle><circle r="6.712013424204945" cx="227.52838312739166" cy="325.78809625476606" opacity="0.7576762861969508"></circle><circle r="5.72982886026179" cx="596.695184173453" cy="564.8842032528249" opacity="0.7469420667682876"></circle><circle r="5.00579503870679" cx="109.91143287867853" cy="429.51853157599595" opacity="0.8163929711147558"></circle><circle r="4.712916284784344" cx="352.1186250711052" cy="150.3716694477481" opacity="0.1847765901174843"></circle><circle r="6.110707361754445" cx="145.84167268109633" cy="785.4190782229157" opacity="0.5194479842725591"></circle><circle r="5.534173577966254" cx="98.4706928195369" cy="769.0162038839973" opacity="0.4923206487886742"></circle><circle r="7.685457738748452" cx="54.7920851981433" cy="598.5051799325456" opacity="0.610890907241779"></circle><circle r="3.9785062414619254" cx="358.67944758030706" cy="570.4191450287858" opacity="0.7505403007465448"></circle><circle r="6.882934957418245" cx="560.9914009282065" cy="280.3091190566593" opacity="0.34514254372099273"></circle><circle r="6.318581015847954" cx="57.9024284016861" cy="114.44015535684868" opacity="0.2947375419069356"></circle><circle r="3.899811153686797" cx="778.8078244466889" cy="460.70609798765054" opacity="0.1111493947926858"></circle><circle r="5.343976344625512" cx="626.3264179135122" cy="688.361795342284" opacity="0.6020752998233213"></circle><circle r="5.978937796098386" cx="554.3359942706709" cy="631.3641859349071" opacity="0.7526049336614197"></circle><circle r="5.633510589824121" cx="449.43659778062204" cy="467.36321602432224" opacity="0.9513135127294852"></circle><circle r="3.229571952371821" cx="779.7211074058781" cy="257.36495615353107" opacity="0.8073814500857226"></circle><circle r="5.469966588007277" cx="118.40973837832178" cy="785.7440548478914" opacity="0.48516218911289044"></circle><circle r="2.7876916213650063" cx="362.78226346840296" cy="714.3428220498291" opacity="0.20666814515894394"></circle><circle r="5.674582029480982" cx="333.0983944572835" cy="547.6967923619967" opacity="0.2671818283312525"></circle><circle r="6.159157742815461" cx="704.3156392646346" cy="173.13758979795796" opacity="0.775390258975309"></circle><circle r="8.371116524501604" cx="558.5140592387819" cy="512.0027184909991" opacity="0.1700865830079415"></circle><circle r="4.964156307669878" cx="676.4266306691994" cy="372.4491548020503" opacity="0.6724167052596631"></circle><circle r="3.1662619159225387" cx="784.2886592977868" cy="593.7476407612226" opacity="0.9497577705994673"></circle><circle r="7.15740600302167" cx="662.0152317783771" cy="564.1307424534793" opacity="0.340537688172583"></circle><circle r="5.489864156682419" cx="110.30020092291028" cy="504.14275938055147" opacity="0.9758788437690908"></circle><circle r="3.548648070290325" cx="16.75628199451701" cy="139.67407750516253" opacity="0.3347974128724572"></circle><circle r="5.306272810951273" cx="345.6389969341329" cy="595.7238583750926" opacity="0.8290193954377554"></circle><circle r="5.351159509933771" cx="657.1743472877607" cy="534.3599701422658" opacity="0.3506750020195061"></circle><circle r="5.243038901653292" cx="600.9491225192033" cy="504.25259244174356" opacity="0.7151732626254546"></circle><circle r="2.5173687419501922" cx="92.62133538319415" cy="656.1865558594035" opacity="0.43480922826406443"></circle><circle r="4.35121850441253" cx="175.23316054251802" cy="757.871505770003" opacity="0.15949974723254826"></circle><circle r="6.543113053980823" cx="224.5114810799605" cy="694.7388782315398" opacity="0.46812886155790356"></circle><circle r="4.1908179643349275" cx="170.55336228438202" cy="783.2179488291738" opacity="0.5612339110594152"></circle><circle r="4.606054152571522" cx="463.81913704515244" cy="372.75138378485525" opacity="0.4641662474152316"></circle><circle r="4.548718269433996" cx="202.37236512181457" cy="349.0551453595338" opacity="0.1274220651869954"></circle><circle r="5.959067438343941" cx="408.6848267259933" cy="651.4718817641328" opacity="0.6415931574054892"></circle><circle r="3.2349689722615182" cx="7.741242001974139" cy="102.13496599518693" opacity="0.906896520516106"></circle><circle r="5.581662042497639" cx="125.63623701112462" cy="331.44807990183824" opacity="0.7127371102176179"></circle><circle r="5.064394940946357" cx="15.347645503555276" cy="507.4591687978509" opacity="0.6121398383927622"></circle><circle r="4.302697872495605" cx="699.9438263346341" cy="107.68986441758763" opacity="0.2761030642908131"></circle><circle r="5.942025011262683" cx="356.99406489647436" cy="657.9657139175265" opacity="0.990124389519879"></circle><circle r="4.805379688841499" cx="131.53745416684626" cy="412.626708707053" opacity="0.2114149894759681"></circle><circle r="6.1017190738470015" cx="581.4668287118149" cy="23.240586561662553" opacity="0.159722936221263"></circle><circle r="5.6239838550413825" cx="407.00742762896925" cy="604.7467343842553" opacity="0.5612789546374382"></circle><circle r="4.131779950722192" cx="43.7215096165168" cy="787.9676470039336" opacity="0.4918259238926833"></circle><circle r="7.336025898073484" cx="221.61247367420987" cy="525.3686769182959" opacity="0.6376020902105494"></circle><circle r="9.042620652292797" cx="371.6769839400948" cy="189.49471703639597" opacity="0.5111298674733277"></circle><circle r="2.667467373912565" cx="325.579485657751" cy="114.03273458598986" opacity="0.4267830387000131"></circle><circle r="4.998026981255246" cx="660.3782461145968" cy="133.55316469065835" opacity="0.8493153822333305"></circle><circle r="4.6010799756858045" cx="421.6988710349819" cy="570.8802674151245" opacity="0.3691860360289124"></circle><circle r="5.021962742032295" cx="119.51324395902512" cy="644.7913438400324" opacity="0.9336873407888502"></circle><circle r="4.3040904183616755" cx="702.8534115126046" cy="144.4717166838467" opacity="0.9294442899484893"></circle><circle r="5.414665277560376" cx="625.3939351386533" cy="247.9778321998049" opacity="0.3817783821026953"></circle><circle r="3.0303289170109466" cx="57.10403976606782" cy="422.90467162969793" opacity="0.4287663331689583"></circle><circle r="5.574822934862521" cx="292.7367118104169" cy="570.9935030062207" opacity="0.9002596747066939"></circle><circle r="4.9879388136145355" cx="202.64909435897974" cy="390.2433231661701" opacity="0.98713883489505"></circle><circle r="5.630655934101828" cx="424.50524414236173" cy="518.2629155657506" opacity="0.22297367759082898"></circle><circle r="4.847064384229108" cx="664.7627003401195" cy="598.1894349185545" opacity="0.11045718094887669"></circle><circle r="3.7201932489894514" cx="90.01685541142501" cy="451.3889795202911" opacity="0.33883942603575345"></circle><circle r="2.887742655884191" cx="455.4882658130778" cy="445.48780259095315" opacity="0.12665794416586473"></circle><circle r="6.103174797398094" cx="197.7162907268397" cy="629.8657383759518" opacity="0.17811704223344144"></circle><circle r="7.764349439428354" cx="494.81062093134966" cy="212.26995071700526" opacity="0.5912836064822831"></circle><circle r="5.941127169771273" cx="664.5529089136643" cy="770.8840661345831" opacity="0.5728891406946611"></circle><circle r="4.789641035192825" cx="460.62644346400396" cy="554.9697942552983" opacity="0.5987006596755798"></circle><circle r="5.7178030808551465" cx="135.57445346080533" cy="201.50927813959112" opacity="0.3455916004331805"></circle><circle r="6.749071133762162" cx="726.8169520300787" cy="731.3508116429767" opacity="0.9276656944944232"></circle><circle r="3.483973737152297" cx="352.877161144262" cy="537.1098995071814" opacity="0.26213326103446843"></circle><circle r="5.7442250378749105" cx="579.7255210489934" cy="315.5927141272971" opacity="0.6594955358438181"></circle><circle r="5.743982525526798" cx="255.27497093568695" cy="708.0018913905801" opacity="0.4454465774932638"></circle><circle r="4.046493426923459" cx="10.37039719842346" cy="22.034800869279803" opacity="0.3614242558492843"></circle><circle r="3.9481585752229647" cx="699.2956437171641" cy="469.3059414182285" opacity="0.7712364694816155"></circle><circle r="6.232361368345244" cx="718.0417869747708" cy="246.0154249410874" opacity="0.34397135928261835"></circle><circle r="7.321174900760165" cx="569.1759224611924" cy="571.4763999501906" opacity="0.2890509140111335"></circle><circle r="4.065520589898028" cx="167.8490213062524" cy="729.934481539147" opacity="0.37266120890427634"></circle><circle r="7.6260387859624945" cx="273.2343949086242" cy="255.32840571062584" opacity="0.8074463311470378"></circle><circle r="6.928909412556356" cx="30.79505323986331" cy="162.98535168443956" opacity="0.1813619496144308"></circle><circle r="6.517904157009651" cx="261.7880294763458" cy="325.5927754190597" opacity="0.4383012601952989"></circle><circle r="6.320451804436879" cx="298.87124248419576" cy="119.7475194692832" opacity="0.33413189630593143"></circle><circle r="6.867559082743374" cx="216.97342234880185" cy="284.6774278867086" opacity="0.36541623584479554"></circle><circle r="7.737402592920036" cx="434.8101450119474" cy="271.29560624649054" opacity="0.1794993266914705"></circle><circle r="5.2496561184158885" cx="138.29029330258035" cy="679.1119557717831" opacity="0.6333859059017037"></circle><circle r="5.0778043270300675" cx="257.9812697646486" cy="744.1585581522259" opacity="0.7637866036588515"></circle><circle r="4.923631489553968" cx="366.0792077052404" cy="270.3749802475478" opacity="0.1844620243725624"></circle><circle r="3.7421730062318845" cx="197.5840543612643" cy="11.322209324173297" opacity="0.9275002532436297"></circle><circle r="4.054236979547616" cx="161.93837405315793" cy="449.5446568691034" opacity="0.8088349575004617"></circle><circle r="6.581989432501504" cx="110.45852080466067" cy="744.5522642967028" opacity="0.4700478480696785"></circle><circle r="7.392711946147639" cx="542.965922293115" cy="80.89677227492476" opacity="0.6851923802395956"></circle><circle r="5.158043237428567" cx="384.37067276309" cy="149.8555700841608" opacity="0.9500692997168636"></circle><circle r="5.364099502169482" cx="59.306429414835804" cy="180.96893733712758" opacity="0.32387848814650266"></circle><circle r="3.7700983081059967" cx="253.90034492385539" cy="372.60707406053933" opacity="0.4093512125312161"></circle><circle r="6.340501962104639" cx="618.848787940615" cy="725.3912447219143" opacity="0.20510457476042965"></circle><circle r="11.285326116691008" cx="654.9904051451296" cy="175.97624218175673" opacity="0.7320063459457844"></circle><circle r="6.771501144964647" cx="578.7054088074583" cy="407.1536159320647" opacity="0.7295869225542523"></circle><circle r="4.42383594228155" cx="180.71362765065626" cy="145.01515632463273" opacity="0.9990766713289145"></circle><circle r="6.126711617344851" cx="22.113736216916724" cy="694.6367632974684" opacity="0.33075415245523376"></circle><circle r="5.301683235368969" cx="338.07600921119365" cy="334.30140925996915" opacity="0.9304747974893103"></circle><circle r="5.36829484752639" cx="481.63780839775245" cy="572.1610028043964" opacity="0.7312970947518032"></circle><circle r="7.943447613215723" cx="533.1527677929307" cy="663.7973868085277" opacity="0.7039365745837307"></circle><circle r="4.955708410575496" cx="71.64593301798033" cy="383.83057835079705" opacity="0.7853281688362992"></circle><circle r="7.841677627867829" cx="570.0580697511635" cy="117.57634079353464" opacity="0.7999473980878501"></circle><circle r="4.2257277572831855" cx="787.565342427949" cy="620.2984799667263" opacity="0.8542343545933052"></circle><circle r="4.839923710104916" cx="714.8727656038546" cy="367.97160151577845" opacity="0.7868913967867827"></circle><circle r="3.7368407933973105" cx="783.466161579887" cy="214.89264824547814" opacity="0.9031222126667204"></circle><circle r="7.506578792166753" cx="555.6273482436391" cy="738.2025680530438" opacity="0.4591648459004234"></circle><circle r="5.953598349696735" cx="327.31483707790477" cy="757.8021466028181" opacity="0.1011708674016244"></circle><circle r="4.129490399690479" cx="650.2735853554561" cy="282.6576837650518" opacity="0.7080635074488786"></circle><circle r="6.01576507039723" cx="80.6938034564673" cy="741.08500230317" opacity="0.6178003601841096"></circle><circle r="3.9760067075357384" cx="589.1934342585945" cy="281.52594401935517" opacity="0.4881692542789752"></circle><circle r="4.270269459969375" cx="187.441381870854" cy="412.7883552028863" opacity="0.8571785104620212"></circle><circle r="6.6361630008803845" cx="416.7721786887304" cy="428.3623563050443" opacity="0.6176918278466279"></circle><circle r="6.639568452787726" cx="15.127162235494973" cy="775.901560352427" opacity="0.28880003330632453"></circle><circle r="4.796162085507692" cx="579.198346224042" cy="782.2375776930734" opacity="0.7484262455603201"></circle><circle r="5.5589070981884365" cx="190.25829014418665" cy="705.0691362258037" opacity="0.9502240747898895"></circle><circle r="9.434321580226577" cx="701.1783823042699" cy="698.07406799996" opacity="0.7765628949082255"></circle><circle r="5.173999330619695" cx="627.7841821728988" cy="520.0008276937323" opacity="0.19759353311557182"></circle><circle r="4.585909540970114" cx="200.84091298034647" cy="749.2733267360056" opacity="0.4905120009502839"></circle><circle r="3.2191209602338486" cx="126.19185369381266" cy="176.8903874732057" opacity="0.48274949240467535"></circle><circle r="5.508369200290787" cx="299.04745704619904" cy="306.53198598788913" opacity="0.6738144937039937"></circle><circle r="6.6018958332783555" cx="95.71918574768314" cy="182.2894554151492" opacity="0.1226312839849961"></circle><circle r="4.426430460764855" cx="616.2307657218572" cy="352.975554308042" opacity="0.8593885394316786"></circle><circle r="7.026481994415346" cx="483.11068572433624" cy="51.20409921717974" opacity="0.31988442955583296"></circle><circle r="5.934056972517844" cx="491.7328609699538" cy="602.5393326269991" opacity="0.658857585244"></circle><circle r="8.570627446105771" cx="232.0622255457124" cy="473.08438874955976" opacity="0.8315498156150827"></circle><circle r="7.5987677348137765" cx="511.2263024513947" cy="632.8715226608786" opacity="0.2245717067326557"></circle><circle r="3.3962195991508444" cx="742.8333447105493" cy="501.2844327942464" opacity="0.4432093890956018"></circle><circle r="4.71965720069013" cx="277.6035635060994" cy="783.6050509906909" opacity="0.9838290418152159"></circle><circle r="4.17907287633771" cx="384.74477542226674" cy="411.1122738060772" opacity="0.9065901522742053"></circle><circle r="4.926224842002485" cx="692.8102384183686" cy="739.4825261372043" opacity="0.11610042425988952"></circle><circle r="4.586336012253419" cx="668.0112127247495" cy="683.6216194870505" opacity="0.4677733376572998"></circle><circle r="9.025589804190897" cx="290.9526473893067" cy="215.66046464968232" opacity="0.17237442956410612"></circle><circle r="4.380671211686849" cx="318.38006249542997" cy="562.4864080763975" opacity="0.47874255167847757"></circle><circle r="3.6244709606974768" cx="343.781028417153" cy="368.5235532202996" opacity="0.3006285550636907"></circle><circle r="5.383059061184804" cx="755.5197921780375" cy="259.0549168161716" opacity="0.927626824609976"></circle><circle r="3.5518402832616127" cx="63.30540596903848" cy="504.02970554272645" opacity="0.5359557396041106"></circle><circle r="5.723143279393462" cx="571.4042027865481" cy="704.9072768081926" opacity="0.38622858449957476"></circle><circle r="4.641946198464191" cx="276.8731786889782" cy="549.7447790952921" opacity="0.31147710984196336"></circle><circle r="4.701623511080715" cx="123.50697970685937" cy="308.3059052643776" opacity="0.17939010187566992"></circle><circle r="4.38625456348858" cx="614.7349769934908" cy="13.572951514434967" opacity="0.5165328316182008"></circle><circle r="5.515212411082156" cx="49.62722045794674" cy="393.37189277010583" opacity="0.9079167173374723"></circle><circle r="4.01407846016255" cx="417.0865163159097" cy="488.0345333739786" opacity="0.25194849152855653"></circle><circle r="5.665694851907236" cx="395.6573218998125" cy="563.9399691990244" opacity="0.14548052167105166"></circle><circle r="5.053304415543351" cx="513.7807697730126" cy="298.71922962691025" opacity="0.7171220088259238"></circle><circle r="4.039743175815044" cx="676.8635689203853" cy="86.8008758618568" opacity="0.28941084142793727"></circle><circle r="7.0852849790290495" cx="508.05076301461594" cy="693.4219387913731" opacity="0.34756300030814147"></circle><circle r="3.6714569983715477" cx="51.2790314013575" cy="708.2512896717665" opacity="0.13501492320846548"></circle><circle r="3.995819992213403" cx="766.4760781694315" cy="517.358347813616" opacity="0.39175413681624327"></circle><circle r="5.667588530805837" cx="29.3880216563781" cy="108.66186884998383" opacity="0.7659662809768304"></circle><circle r="6.7811089925837695" cx="618.5582202972201" cy="283.329627125172" opacity="0.8097122070526754"></circle><circle r="3.9397490509522672" cx="86.31373786177573" cy="709.2281792673786" opacity="0.10442595802043185"></circle><circle r="5.016221966212296" cx="237.12680724057202" cy="249.93490066740867" opacity="0.3582698120739414"></circle><circle r="7.490155162977189" cx="76.61712615510416" cy="71.65679432942068" opacity="0.16315926539201686"></circle><circle r="4.90109461630445" cx="33.35864312855466" cy="13.48459481416988" opacity="0.4258063510819323"></circle><circle r="7.178592061120543" cx="401.86056416218537" cy="365.6472861517545" opacity="0.19582589957053825"></circle><circle r="6.668223247983386" cx="11.997412109091309" cy="666.491136764339" opacity="0.7935672724698596"></circle><circle r="6.312458636332068" cx="639.9728615560329" cy="309.25361169897076" opacity="0.8824779109339056"></circle><circle r="6.208146209772003" cx="161.5706118493832" cy="264.47780118884714" opacity="0.1746849370340906"></circle><circle r="7.231205445458047" cx="198.3543654765855" cy="441.21063398021295" opacity="0.35203895093923254"></circle><circle r="4.750509631454484" cx="443.1425736653434" cy="598.7116165296486" opacity="0.96356431583553"></circle><circle r="4.229763495301954" cx="547.3680591672168" cy="478.37262346576966" opacity="0.3258439357826309"></circle><circle r="3.5267633159994736" cx="282.2194359402935" cy="377.6307286387076" opacity="0.6947063118947177"></circle><circle r="5.369208542784026" cx="316.0310120814221" cy="502.50679011142967" opacity="0.7945536837994175"></circle><circle r="5.5979965946181665" cx="232.16036793412968" cy="627.6657074993606" opacity="0.2612863636188107"></circle><circle r="7.031455548169703" cx="17.459797843183242" cy="296.8481702655844" opacity="0.9019718209174226"></circle><circle r="6.2674160308800335" cx="257.3211681755662" cy="420.8698287470965" opacity="0.49023344248932066"></circle><circle r="6.797640661465648" cx="161.75923683836578" cy="640.8016771215035" opacity="0.5619727324641832"></circle><circle r="3.9124920341918474" cx="58.8184811902206" cy="24.29574293792587" opacity="0.16198040411841633"></circle><circle r="6.797735536524444" cx="420.84663557143085" cy="749.9861873623598" opacity="0.6947735803612692"></circle><circle r="4.972114815216728" cx="90.61960547599975" cy="120.70350956124295" opacity="0.8486026503550587"></circle><circle r="5.209649632003206" cx="118.29439040103557" cy="721.1846561922371" opacity="0.21487344530810693"></circle><circle r="6.675165432291324" cx="512.4479974927643" cy="562.7939047338876" opacity="0.6340739033650965"></circle><circle r="5.6471898603286945" cx="342.09815389285444" cy="307.7074974548465" opacity="0.6591195317115531"></circle><circle r="4.385055052884219" cx="242.47503601410034" cy="353.5891356878075" opacity="0.9066187113256089"></circle><circle r="5.46336585110828" cx="491.85795639169623" cy="383.80377554134884" opacity="0.32544957531189667"></circle><circle r="4.4601445604941246" cx="233.49807423697857" cy="395.3978998739486" opacity="0.5777826205652099"></circle><circle r="6.596157070968701" cx="169.54002792714653" cy="202.24133509683745" opacity="0.14314122473097227"></circle><circle r="3.8270352211726624" cx="440.38648144566315" cy="494.6149722247429" opacity="0.7085430906923945"></circle><circle r="3.5089594962812765" cx="789.2137974087575" cy="277.45005422336436" opacity="0.49334467372915924"></circle><circle r="4.904327058213223" cx="706.2719675147713" cy="77.0074563284333" opacity="0.19077037565218896"></circle><circle r="3.3368438881841804" cx="605.9041965725978" cy="621.6745478286415" opacity="0.42479591154452057"></circle><circle r="5.028034857010936" cx="376.48286807067973" cy="696.9247828194513" opacity="0.3971975998574512"></circle><circle r="6.075503800217914" cx="749.6241459624287" cy="596.8975991506126" opacity="0.8359604424108659"></circle><circle r="5.59690094418068" cx="738.0374994662889" cy="134.85421756569926" opacity="0.37979391168434073"></circle><circle r="8.343180332850995" cx="657.9242502177982" cy="716.5765941746198" opacity="0.6921897137901263"></circle><circle r="3.812794102844878" cx="596.993856978517" cy="250.71395445977575" opacity="0.13479582649875574"></circle><circle r="3.7477335350983676" cx="57.335403214445854" cy="637.2006617201114" opacity="0.6313215529482961"></circle><circle r="5.090187449600688" cx="608.4619611723422" cy="389.8752662702984" opacity="0.5080982022743586"></circle><circle r="4.898734644506027" cx="38.17648076948102" cy="465.90230575547906" opacity="0.8775654973114791"></circle><circle r="4.7814686177924965" cx="380.4912173401861" cy="317.594637168264" opacity="0.12247883384106331"></circle><circle r="4.905678497750858" cx="220.0021796052427" cy="370.8984569331618" opacity="0.42927540372347917"></circle><circle r="4.459771196049809" cx="594.5578054550016" cy="442.0240393252406" opacity="0.4615294047254618"></circle><circle r="6.0179847440418595" cx="621.7392671250886" cy="133.17704833518988" opacity="0.49836837357174857"></circle><circle r="4.346919205204299" cx="730.3512259066991" cy="272.7123577740215" opacity="0.4454805187529539"></circle><circle r="5.434803761940943" cx="17.148675456264957" cy="732.278143660226" opacity="0.27585762595035546"></circle><circle r="5.0163053684279975" cx="655.2773326447948" cy="254.556551565907" opacity="0.8595023416359688"></circle><circle r="5.557567530541526" cx="486.7692675107504" cy="664.7503545942164" opacity="0.259831731279381"></circle><circle r="6.0855455219171315" cx="662.8426962697523" cy="410.7023741832716" opacity="0.5613064129600537"></circle><circle r="6.363985105394338" cx="691.5093920006631" cy="512.6565848355019" opacity="0.654875002467277"></circle><circle r="4.68634289756908" cx="739.1392490501862" cy="527.8143886157189" opacity="0.7003504834201718"></circle><circle r="4.981364427191575" cx="355.6430414106086" cy="246.4863477167161" opacity="0.9446279433089894"></circle><circle r="6.9518713196644795" cx="454.47494236401224" cy="525.0354285688426" opacity="0.5568818482059782"></circle><circle r="5.261244496191342" cx="484.98985471156476" cy="15.322456023262871" opacity="0.2885512282729159"></circle><circle r="4.050528827138979" cx="751.4793102340025" cy="194.5686986262938" opacity="0.7310989111225409"></circle><circle r="5.206250989617038" cx="744.0417592148704" cy="26.886448188214253" opacity="0.5589303955443008"></circle><circle r="3.426444650295134" cx="137.37245928367145" cy="155.4264444655993" opacity="0.6690289787643875"></circle><circle r="8.014162790494462" cx="693.6357008948717" cy="216.8084524961111" opacity="0.4265665274167115"></circle><circle r="8.81527061423918" cx="729.3633619798374" cy="778.051819937782" opacity="0.3641611356820862"></circle><circle r="3.9540099752314166" cx="586.2837389181193" cy="750.4124258076729" opacity="0.22161741090818865"></circle><circle r="7.188776574314192" cx="282.60619769971964" cy="696.4126378345275" opacity="0.9476802086228234"></circle><circle r="6.657804857838492" cx="153.77258066426964" cy="559.1623233568392" opacity="0.8338242038552487"></circle><circle r="2.8281337560927677" cx="118.04811233795628" cy="672.279610446971" opacity="0.734236583819155"></circle><circle r="5.6119148943526564" cx="191.0514454820279" cy="318.56952744243824" opacity="0.15327093611305773"></circle><circle r="6.60535491018886" cx="559.6264174652187" cy="248.46742667119244" opacity="0.7640145795820943"></circle><circle r="7.086911376775581" cx="17.424787993263" cy="546.280845830549" opacity="0.5555227057309658"></circle><circle r="5.702717664897668" cx="611.4313014159823" cy="319.13887638165073" opacity="0.8459776197010823"></circle><circle r="3.673087404797818" cx="706.0068843250065" cy="428.0347140524277" opacity="0.6869726631964528"></circle><circle r="5.127161405259243" cx="17.95677195057135" cy="579.2464356964099" opacity="0.6742604488588921"></circle><circle r="7.082200058021844" cx="458.2595752543195" cy="687.5875995848128" opacity="0.3595517227610916"></circle><circle r="3.8226218850558973" cx="113.95435902307084" cy="480.84649754891785" opacity="0.868023793351661"></circle><circle r="3.853933991179594" cx="274.23751206066396" cy="589.7926885751639" opacity="0.9165418361592323"></circle><circle r="6.611110443103764" cx="762.2542476665867" cy="88.75341531679744" opacity="0.3544892588019132"></circle><circle r="6.059978859235638" cx="225.90891375948868" cy="169.36597115259815" opacity="0.6192043516795622"></circle><circle r="3.626326619881247" cx="75.31546149707988" cy="349.5005265338746" opacity="0.24754586749286134"></circle><circle r="6.648740275479413" cx="431.69320017494255" cy="92.44662629835517" opacity="0.9782124747206343"></circle><circle r="8.356530758817488" cx="89.53683334978085" cy="216.46212240254226" opacity="0.1699418988002995"></circle><circle r="7.039147304744119" cx="542.9223381455117" cy="311.96924147539" opacity="0.6854317851155516"></circle><circle r="5.463449865286947" cx="126.65066303584479" cy="384.12512380563925" opacity="0.9336759071596926"></circle><circle r="8.657358099266741" cx="122.65098472652991" cy="92.00252669771372" opacity="0.924355069861608"></circle><circle r="3.84885240432689" cx="271.25830858165807" cy="97.78117345740296" opacity="0.7704609466453036"></circle><circle r="6.45166922914901" cx="777.0988391463543" cy="13.229451064422793" opacity="0.8792242448525492"></circle><circle r="7.948804062383639" cx="717.2453912175152" cy="592.4821770773091" opacity="0.8746140471900181"></circle><circle r="4.122202285476371" cx="267.57426187576937" cy="131.14254464440378" opacity="0.6871375875631527"></circle></g></svg>