<?xml version="1.0" standalone="no"?>
<!DOCTYPE svg PUBLIC "-//W3C//DTD SVG 20010904//EN"
 "http://www.w3.org/TR/2001/REC-SVG-20010904/DTD/svg10.dtd">
<svg version="1.0" xmlns="http://www.w3.org/2000/svg"
 width="144.000000pt" height="144.000000pt" viewBox="0 0 144.000000 144.000000"
 preserveAspectRatio="xMidYMid meet">
<metadata>
Created by potrace 1.10, written by Peter Selinger 2001-2011
</metadata>
<g transform="translate(0.000000,144.000000) scale(0.050000,-0.050000)"
fill="#000000" stroke="none">
<path d="M2125 2557 l-165 -163 0 -157 c0 -144 -5 -161 -57 -221 l-58 -64 -65
55 c-640 539 -1632 -127 -1421 -953 215 -841 1321 -944 1719 -159 123 244 75
800 -78 895 -131 81 -16 191 184 176 l146 -11 167 158 c264 248 266 287 19
287 l-160 0 4 125 c6 180 4 195 -35 195 -19 0 -109 -74 -200 -163z m134 -112
c0 -69 -138 -265 -186 -265 -53 0 -5 146 79 238 111 122 108 121 107 27z m221
-159 c0 -50 -193 -206 -254 -206 -145 0 65 209 219 218 19 1 35 -4 35 -12z
m-1070 -233 c149 -33 350 -136 350 -181 0 -20 -136 -152 -156 -152 -10 0 -33
17 -52 38 -48 52 -200 91 -344 88 -581 -15 -745 -816 -226 -1099 114 -62 421
-53 539 17 286 167 394 563 220 799 -53 72 -53 73 33 152 l74 68 37 -47 c387
-489 -7 -1255 -645 -1255 -797 0 -1084 1104 -385 1484 194 106 354 131 555 88z
m48 -365 c76 -38 77 -41 0 -120 -59 -61 -68 -63 -177 -53 -242 22 -373 -214
-222 -398 165 -200 493 -29 422 220 -15 53 -9 70 54 141 l72 81 36 -60 c261
-429 -327 -903 -702 -566 -402 362 32 997 517 755z m-187 -289 c7 -12 -7 -38
-31 -59 -49 -43 -47 -106 4 -116 19 -4 50 12 70 35 42 49 66 53 66 10 0 -44
-91 -129 -139 -129 -130 0 -163 218 -41 265 45 18 56 17 71 -6z"/>
</g>
</svg>
