<svg xmlns="http://www.w3.org/2000/svg" version="1.1" xmlns:xlink="http://www.w3.org/1999/xlink" xmlns:svgjs="http://svgjs.dev/svgjs" viewBox="0 0 2400 800" opacity="0.19"><defs><linearGradient x1="50%" y1="0%" x2="50%" y2="100%" id="sssurf-grad"><stop stop-color="hsl(208, 77%, 50%)" stop-opacity="1" offset="0%"></stop><stop stop-color="hsla(208, 65%, 39%, 1.00)" stop-opacity="1" offset="100%"></stop></linearGradient></defs><g fill="url(#sssurf-grad)" transform="matrix(1,0,0,1,0,-557.745849609375)"><path d="M 0 268.07973648658947 Q 132.6881411553485 450 240 347.0364611077787 Q 408.39139285883 450 480 265.1487118834238 Q 621.6060058746787 450 720 295.06919073510403 Q 890.1256172985828 450 960 250.4916866848558 Q 1108.3904029411392 450 1200 310.2729032507562 Q 1341.0936898956686 450 1440 301.25805257446086 Q 1558.093400281046 450 1680 304.8017308106739 Q 1777.1151877147036 450 1920 326.7044543180442 Q 2058.6909102296786 450 2160 347.31711263735804 Q 2235.3546608739057 450 2400 391.05743250536165 L 2400 800 L 0 800 L 0 348.70011246059283 Z" transform="matrix(1,0,0,1,0,115)" opacity="0.05"></path><path d="M 0 268.07973648658947 Q 132.6881411553485 450 240 347.0364611077787 Q 408.39139285883 450 480 265.1487118834238 Q 621.6060058746787 450 720 295.06919073510403 Q 890.1256172985828 450 960 250.4916866848558 Q 1108.3904029411392 450 1200 310.2729032507562 Q 1341.0936898956686 450 1440 301.25805257446086 Q 1558.093400281046 450 1680 304.8017308106739 Q 1777.1151877147036 450 1920 326.7044543180442 Q 2058.6909102296786 450 2160 347.31711263735804 Q 2235.3546608739057 450 2400 391.05743250536165 L 2400 800 L 0 800 L 0 348.70011246059283 Z" transform="matrix(1,0,0,1,0,230)" opacity="0.16"></path><path d="M 0 268.07973648658947 Q 132.6881411553485 450 240 347.0364611077787 Q 408.39139285883 450 480 265.1487118834238 Q 621.6060058746787 450 720 295.06919073510403 Q 890.1256172985828 450 960 250.4916866848558 Q 1108.3904029411392 450 1200 310.2729032507562 Q 1341.0936898956686 450 1440 301.25805257446086 Q 1558.093400281046 450 1680 304.8017308106739 Q 1777.1151877147036 450 1920 326.7044543180442 Q 2058.6909102296786 450 2160 347.31711263735804 Q 2235.3546608739057 450 2400 391.05743250536165 L 2400 800 L 0 800 L 0 348.70011246059283 Z" transform="matrix(1,0,0,1,0,345)" opacity="0.26"></path><path d="M 0 268.07973648658947 Q 132.6881411553485 450 240 347.0364611077787 Q 408.39139285883 450 480 265.1487118834238 Q 621.6060058746787 450 720 295.06919073510403 Q 890.1256172985828 450 960 250.4916866848558 Q 1108.3904029411392 450 1200 310.2729032507562 Q 1341.0936898956686 450 1440 301.25805257446086 Q 1558.093400281046 450 1680 304.8017308106739 Q 1777.1151877147036 450 1920 326.7044543180442 Q 2058.6909102296786 450 2160 347.31711263735804 Q 2235.3546608739057 450 2400 391.05743250536165 L 2400 800 L 0 800 L 0 348.70011246059283 Z" transform="matrix(1,0,0,1,0,460)" opacity="0.37"></path><path d="M 0 268.07973648658947 Q 132.6881411553485 450 240 347.0364611077787 Q 408.39139285883 450 480 265.1487118834238 Q 621.6060058746787 450 720 295.06919073510403 Q 890.1256172985828 450 960 250.4916866848558 Q 1108.3904029411392 450 1200 310.2729032507562 Q 1341.0936898956686 450 1440 301.25805257446086 Q 1558.093400281046 450 1680 304.8017308106739 Q 1777.1151877147036 450 1920 326.7044543180442 Q 2058.6909102296786 450 2160 347.31711263735804 Q 2235.3546608739057 450 2400 391.05743250536165 L 2400 800 L 0 800 L 0 348.70011246059283 Z" transform="matrix(1,0,0,1,0,575)" opacity="0.47"></path><path d="M 0 268.07973648658947 Q 132.6881411553485 450 240 347.0364611077787 Q 408.39139285883 450 480 265.1487118834238 Q 621.6060058746787 450 720 295.06919073510403 Q 890.1256172985828 450 960 250.4916866848558 Q 1108.3904029411392 450 1200 310.2729032507562 Q 1341.0936898956686 450 1440 301.25805257446086 Q 1558.093400281046 450 1680 304.8017308106739 Q 1777.1151877147036 450 1920 326.7044543180442 Q 2058.6909102296786 450 2160 347.31711263735804 Q 2235.3546608739057 450 2400 391.05743250536165 L 2400 800 L 0 800 L 0 348.70011246059283 Z" transform="matrix(1,0,0,1,0,690)" opacity="0.58"></path><path d="M 0 268.07973648658947 Q 132.6881411553485 450 240 347.0364611077787 Q 408.39139285883 450 480 265.1487118834238 Q 621.6060058746787 450 720 295.06919073510403 Q 890.1256172985828 450 960 250.4916866848558 Q 1108.3904029411392 450 1200 310.2729032507562 Q 1341.0936898956686 450 1440 301.25805257446086 Q 1558.093400281046 450 1680 304.8017308106739 Q 1777.1151877147036 450 1920 326.7044543180442 Q 2058.6909102296786 450 2160 347.31711263735804 Q 2235.3546608739057 450 2400 391.05743250536165 L 2400 800 L 0 800 L 0 348.70011246059283 Z" transform="matrix(1,0,0,1,0,805)" opacity="0.68"></path><path d="M 0 268.07973648658947 Q 132.6881411553485 450 240 347.0364611077787 Q 408.39139285883 450 480 265.1487118834238 Q 621.6060058746787 450 720 295.06919073510403 Q 890.1256172985828 450 960 250.4916866848558 Q 1108.3904029411392 450 1200 310.2729032507562 Q 1341.0936898956686 450 1440 301.25805257446086 Q 1558.093400281046 450 1680 304.8017308106739 Q 1777.1151877147036 450 1920 326.7044543180442 Q 2058.6909102296786 450 2160 347.31711263735804 Q 2235.3546608739057 450 2400 391.05743250536165 L 2400 800 L 0 800 L 0 348.70011246059283 Z" transform="matrix(1,0,0,1,0,920)" opacity="0.79"></path><path d="M 0 268.07973648658947 Q 132.6881411553485 450 240 347.0364611077787 Q 408.39139285883 450 480 265.1487118834238 Q 621.6060058746787 450 720 295.06919073510403 Q 890.1256172985828 450 960 250.4916866848558 Q 1108.3904029411392 450 1200 310.2729032507562 Q 1341.0936898956686 450 1440 301.25805257446086 Q 1558.093400281046 450 1680 304.8017308106739 Q 1777.1151877147036 450 1920 326.7044543180442 Q 2058.6909102296786 450 2160 347.31711263735804 Q 2235.3546608739057 450 2400 391.05743250536165 L 2400 800 L 0 800 L 0 348.70011246059283 Z" transform="matrix(1,0,0,1,0,1035)" opacity="0.89"></path><path d="M 0 268.07973648658947 Q 132.6881411553485 450 240 347.0364611077787 Q 408.39139285883 450 480 265.1487118834238 Q 621.6060058746787 450 720 295.06919073510403 Q 890.1256172985828 450 960 250.4916866848558 Q 1108.3904029411392 450 1200 310.2729032507562 Q 1341.0936898956686 450 1440 301.25805257446086 Q 1558.093400281046 450 1680 304.8017308106739 Q 1777.1151877147036 450 1920 326.7044543180442 Q 2058.6909102296786 450 2160 347.31711263735804 Q 2235.3546608739057 450 2400 391.05743250536165 L 2400 800 L 0 800 L 0 348.70011246059283 Z" transform="matrix(1,0,0,1,0,1150)" opacity="1.00"></path></g></svg>